%TF.GenerationSoftware,KiCad,Pcbnew,9.0.7*%
%TF.CreationDate,2026-02-23T19:54:09+01:00*%
%TF.ProjectId,Kaffettino,4b616666-6574-4746-996e-6f2e6b696361,rev?*%
%TF.SameCoordinates,Original*%
%TF.FileFunction,Legend,Top*%
%TF.FilePolarity,Positive*%
%FSLAX46Y46*%
G04 Gerber Fmt 4.6, Leading zero omitted, Abs format (unit mm)*
G04 Created by KiCad (PCBNEW 9.0.7) date 2026-02-23 19:54:09*
%MOMM*%
%LPD*%
G01*
G04 APERTURE LIST*
%ADD10C,0.100000*%
%ADD11C,0.150000*%
%ADD12C,0.200000*%
%ADD13C,0.152400*%
%ADD14C,0.508000*%
%ADD15C,0.120000*%
%ADD16C,0.203200*%
%ADD17C,0.127000*%
G04 APERTURE END LIST*
D10*
X68638095Y-28057419D02*
X68638095Y-28866942D01*
X68638095Y-28866942D02*
X68685714Y-28962180D01*
X68685714Y-28962180D02*
X68733333Y-29009800D01*
X68733333Y-29009800D02*
X68828571Y-29057419D01*
X68828571Y-29057419D02*
X69019047Y-29057419D01*
X69019047Y-29057419D02*
X69114285Y-29009800D01*
X69114285Y-29009800D02*
X69161904Y-28962180D01*
X69161904Y-28962180D02*
X69209523Y-28866942D01*
X69209523Y-28866942D02*
X69209523Y-28057419D01*
X70114285Y-28390752D02*
X70114285Y-29057419D01*
X69876190Y-28009800D02*
X69638095Y-28724085D01*
X69638095Y-28724085D02*
X70257142Y-28724085D01*
X84635471Y-111818098D02*
X84635471Y-111263812D01*
X84635471Y-111540955D02*
X85635471Y-111540955D01*
X85635471Y-111540955D02*
X85492614Y-111448574D01*
X85492614Y-111448574D02*
X85397376Y-111356193D01*
X85397376Y-111356193D02*
X85349757Y-111263812D01*
X84635471Y-112280003D02*
X84635471Y-112464765D01*
X84635471Y-112464765D02*
X84683091Y-112557146D01*
X84683091Y-112557146D02*
X84730710Y-112603337D01*
X84730710Y-112603337D02*
X84873567Y-112695718D01*
X84873567Y-112695718D02*
X85064043Y-112741908D01*
X85064043Y-112741908D02*
X85444995Y-112741908D01*
X85444995Y-112741908D02*
X85540233Y-112695718D01*
X85540233Y-112695718D02*
X85587852Y-112649527D01*
X85587852Y-112649527D02*
X85635471Y-112557146D01*
X85635471Y-112557146D02*
X85635471Y-112372384D01*
X85635471Y-112372384D02*
X85587852Y-112280003D01*
X85587852Y-112280003D02*
X85540233Y-112233813D01*
X85540233Y-112233813D02*
X85444995Y-112187622D01*
X85444995Y-112187622D02*
X85206900Y-112187622D01*
X85206900Y-112187622D02*
X85111662Y-112233813D01*
X85111662Y-112233813D02*
X85064043Y-112280003D01*
X85064043Y-112280003D02*
X85016424Y-112372384D01*
X85016424Y-112372384D02*
X85016424Y-112557146D01*
X85016424Y-112557146D02*
X85064043Y-112649527D01*
X85064043Y-112649527D02*
X85111662Y-112695718D01*
X85111662Y-112695718D02*
X85206900Y-112741908D01*
X84635471Y-114404766D02*
X84635471Y-113850480D01*
X84635471Y-114127623D02*
X85635471Y-114127623D01*
X85635471Y-114127623D02*
X85492614Y-114035242D01*
X85492614Y-114035242D02*
X85397376Y-113942861D01*
X85397376Y-113942861D02*
X85349757Y-113850480D01*
X85206900Y-114959052D02*
X85254519Y-114866671D01*
X85254519Y-114866671D02*
X85302138Y-114820481D01*
X85302138Y-114820481D02*
X85397376Y-114774290D01*
X85397376Y-114774290D02*
X85444995Y-114774290D01*
X85444995Y-114774290D02*
X85540233Y-114820481D01*
X85540233Y-114820481D02*
X85587852Y-114866671D01*
X85587852Y-114866671D02*
X85635471Y-114959052D01*
X85635471Y-114959052D02*
X85635471Y-115143814D01*
X85635471Y-115143814D02*
X85587852Y-115236195D01*
X85587852Y-115236195D02*
X85540233Y-115282386D01*
X85540233Y-115282386D02*
X85444995Y-115328576D01*
X85444995Y-115328576D02*
X85397376Y-115328576D01*
X85397376Y-115328576D02*
X85302138Y-115282386D01*
X85302138Y-115282386D02*
X85254519Y-115236195D01*
X85254519Y-115236195D02*
X85206900Y-115143814D01*
X85206900Y-115143814D02*
X85206900Y-114959052D01*
X85206900Y-114959052D02*
X85159281Y-114866671D01*
X85159281Y-114866671D02*
X85111662Y-114820481D01*
X85111662Y-114820481D02*
X85016424Y-114774290D01*
X85016424Y-114774290D02*
X84825948Y-114774290D01*
X84825948Y-114774290D02*
X84730710Y-114820481D01*
X84730710Y-114820481D02*
X84683091Y-114866671D01*
X84683091Y-114866671D02*
X84635471Y-114959052D01*
X84635471Y-114959052D02*
X84635471Y-115143814D01*
X84635471Y-115143814D02*
X84683091Y-115236195D01*
X84683091Y-115236195D02*
X84730710Y-115282386D01*
X84730710Y-115282386D02*
X84825948Y-115328576D01*
X84825948Y-115328576D02*
X85016424Y-115328576D01*
X85016424Y-115328576D02*
X85111662Y-115282386D01*
X85111662Y-115282386D02*
X85159281Y-115236195D01*
X85159281Y-115236195D02*
X85206900Y-115143814D01*
X84635471Y-116991434D02*
X84635471Y-116437148D01*
X84635471Y-116714291D02*
X85635471Y-116714291D01*
X85635471Y-116714291D02*
X85492614Y-116621910D01*
X85492614Y-116621910D02*
X85397376Y-116529529D01*
X85397376Y-116529529D02*
X85349757Y-116437148D01*
X85635471Y-117314768D02*
X85635471Y-117961435D01*
X85635471Y-117961435D02*
X84635471Y-117545720D01*
X84635471Y-119578102D02*
X84635471Y-119023816D01*
X84635471Y-119300959D02*
X85635471Y-119300959D01*
X85635471Y-119300959D02*
X85492614Y-119208578D01*
X85492614Y-119208578D02*
X85397376Y-119116197D01*
X85397376Y-119116197D02*
X85349757Y-119023816D01*
X85635471Y-120409531D02*
X85635471Y-120224769D01*
X85635471Y-120224769D02*
X85587852Y-120132388D01*
X85587852Y-120132388D02*
X85540233Y-120086198D01*
X85540233Y-120086198D02*
X85397376Y-119993817D01*
X85397376Y-119993817D02*
X85206900Y-119947626D01*
X85206900Y-119947626D02*
X84825948Y-119947626D01*
X84825948Y-119947626D02*
X84730710Y-119993817D01*
X84730710Y-119993817D02*
X84683091Y-120040007D01*
X84683091Y-120040007D02*
X84635471Y-120132388D01*
X84635471Y-120132388D02*
X84635471Y-120317150D01*
X84635471Y-120317150D02*
X84683091Y-120409531D01*
X84683091Y-120409531D02*
X84730710Y-120455722D01*
X84730710Y-120455722D02*
X84825948Y-120501912D01*
X84825948Y-120501912D02*
X85064043Y-120501912D01*
X85064043Y-120501912D02*
X85159281Y-120455722D01*
X85159281Y-120455722D02*
X85206900Y-120409531D01*
X85206900Y-120409531D02*
X85254519Y-120317150D01*
X85254519Y-120317150D02*
X85254519Y-120132388D01*
X85254519Y-120132388D02*
X85206900Y-120040007D01*
X85206900Y-120040007D02*
X85159281Y-119993817D01*
X85159281Y-119993817D02*
X85064043Y-119947626D01*
X84635471Y-122164770D02*
X84635471Y-121610484D01*
X84635471Y-121887627D02*
X85635471Y-121887627D01*
X85635471Y-121887627D02*
X85492614Y-121795246D01*
X85492614Y-121795246D02*
X85397376Y-121702865D01*
X85397376Y-121702865D02*
X85349757Y-121610484D01*
X85635471Y-123042390D02*
X85635471Y-122580485D01*
X85635471Y-122580485D02*
X85159281Y-122534294D01*
X85159281Y-122534294D02*
X85206900Y-122580485D01*
X85206900Y-122580485D02*
X85254519Y-122672866D01*
X85254519Y-122672866D02*
X85254519Y-122903818D01*
X85254519Y-122903818D02*
X85206900Y-122996199D01*
X85206900Y-122996199D02*
X85159281Y-123042390D01*
X85159281Y-123042390D02*
X85064043Y-123088580D01*
X85064043Y-123088580D02*
X84825948Y-123088580D01*
X84825948Y-123088580D02*
X84730710Y-123042390D01*
X84730710Y-123042390D02*
X84683091Y-122996199D01*
X84683091Y-122996199D02*
X84635471Y-122903818D01*
X84635471Y-122903818D02*
X84635471Y-122672866D01*
X84635471Y-122672866D02*
X84683091Y-122580485D01*
X84683091Y-122580485D02*
X84730710Y-122534294D01*
X84635471Y-124751438D02*
X84635471Y-124197152D01*
X84635471Y-124474295D02*
X85635471Y-124474295D01*
X85635471Y-124474295D02*
X85492614Y-124381914D01*
X85492614Y-124381914D02*
X85397376Y-124289533D01*
X85397376Y-124289533D02*
X85349757Y-124197152D01*
X85302138Y-125582867D02*
X84635471Y-125582867D01*
X85683091Y-125351915D02*
X84968805Y-125120962D01*
X84968805Y-125120962D02*
X84968805Y-125721439D01*
X84635471Y-127338106D02*
X84635471Y-126783820D01*
X84635471Y-127060963D02*
X85635471Y-127060963D01*
X85635471Y-127060963D02*
X85492614Y-126968582D01*
X85492614Y-126968582D02*
X85397376Y-126876201D01*
X85397376Y-126876201D02*
X85349757Y-126783820D01*
X85635471Y-127661440D02*
X85635471Y-128261916D01*
X85635471Y-128261916D02*
X85254519Y-127938583D01*
X85254519Y-127938583D02*
X85254519Y-128077154D01*
X85254519Y-128077154D02*
X85206900Y-128169535D01*
X85206900Y-128169535D02*
X85159281Y-128215726D01*
X85159281Y-128215726D02*
X85064043Y-128261916D01*
X85064043Y-128261916D02*
X84825948Y-128261916D01*
X84825948Y-128261916D02*
X84730710Y-128215726D01*
X84730710Y-128215726D02*
X84683091Y-128169535D01*
X84683091Y-128169535D02*
X84635471Y-128077154D01*
X84635471Y-128077154D02*
X84635471Y-127800011D01*
X84635471Y-127800011D02*
X84683091Y-127707630D01*
X84683091Y-127707630D02*
X84730710Y-127661440D01*
X84635471Y-129924774D02*
X84635471Y-129370488D01*
X84635471Y-129647631D02*
X85635471Y-129647631D01*
X85635471Y-129647631D02*
X85492614Y-129555250D01*
X85492614Y-129555250D02*
X85397376Y-129462869D01*
X85397376Y-129462869D02*
X85349757Y-129370488D01*
X85540233Y-130294298D02*
X85587852Y-130340489D01*
X85587852Y-130340489D02*
X85635471Y-130432870D01*
X85635471Y-130432870D02*
X85635471Y-130663822D01*
X85635471Y-130663822D02*
X85587852Y-130756203D01*
X85587852Y-130756203D02*
X85540233Y-130802394D01*
X85540233Y-130802394D02*
X85444995Y-130848584D01*
X85444995Y-130848584D02*
X85349757Y-130848584D01*
X85349757Y-130848584D02*
X85206900Y-130802394D01*
X85206900Y-130802394D02*
X84635471Y-130248108D01*
X84635471Y-130248108D02*
X84635471Y-130848584D01*
X84635471Y-132511442D02*
X84635471Y-131957156D01*
X84635471Y-132234299D02*
X85635471Y-132234299D01*
X85635471Y-132234299D02*
X85492614Y-132141918D01*
X85492614Y-132141918D02*
X85397376Y-132049537D01*
X85397376Y-132049537D02*
X85349757Y-131957156D01*
X84635471Y-133435252D02*
X84635471Y-132880966D01*
X84635471Y-133158109D02*
X85635471Y-133158109D01*
X85635471Y-133158109D02*
X85492614Y-133065728D01*
X85492614Y-133065728D02*
X85397376Y-132973347D01*
X85397376Y-132973347D02*
X85349757Y-132880966D01*
X84635471Y-135098110D02*
X84635471Y-134543824D01*
X84635471Y-134820967D02*
X85635471Y-134820967D01*
X85635471Y-134820967D02*
X85492614Y-134728586D01*
X85492614Y-134728586D02*
X85397376Y-134636205D01*
X85397376Y-134636205D02*
X85349757Y-134543824D01*
X85635471Y-135698587D02*
X85635471Y-135790968D01*
X85635471Y-135790968D02*
X85587852Y-135883349D01*
X85587852Y-135883349D02*
X85540233Y-135929539D01*
X85540233Y-135929539D02*
X85444995Y-135975730D01*
X85444995Y-135975730D02*
X85254519Y-136021920D01*
X85254519Y-136021920D02*
X85016424Y-136021920D01*
X85016424Y-136021920D02*
X84825948Y-135975730D01*
X84825948Y-135975730D02*
X84730710Y-135929539D01*
X84730710Y-135929539D02*
X84683091Y-135883349D01*
X84683091Y-135883349D02*
X84635471Y-135790968D01*
X84635471Y-135790968D02*
X84635471Y-135698587D01*
X84635471Y-135698587D02*
X84683091Y-135606206D01*
X84683091Y-135606206D02*
X84730710Y-135560015D01*
X84730710Y-135560015D02*
X84825948Y-135513825D01*
X84825948Y-135513825D02*
X85016424Y-135467634D01*
X85016424Y-135467634D02*
X85254519Y-135467634D01*
X85254519Y-135467634D02*
X85444995Y-135513825D01*
X85444995Y-135513825D02*
X85540233Y-135560015D01*
X85540233Y-135560015D02*
X85587852Y-135606206D01*
X85587852Y-135606206D02*
X85635471Y-135698587D01*
X84646981Y-137387522D02*
X84646981Y-137583713D01*
X84646981Y-137583713D02*
X84694601Y-137681808D01*
X84694601Y-137681808D02*
X84742220Y-137730856D01*
X84742220Y-137730856D02*
X84885077Y-137828951D01*
X84885077Y-137828951D02*
X85075553Y-137877998D01*
X85075553Y-137877998D02*
X85456505Y-137877998D01*
X85456505Y-137877998D02*
X85551743Y-137828951D01*
X85551743Y-137828951D02*
X85599362Y-137779903D01*
X85599362Y-137779903D02*
X85646981Y-137681808D01*
X85646981Y-137681808D02*
X85646981Y-137485617D01*
X85646981Y-137485617D02*
X85599362Y-137387522D01*
X85599362Y-137387522D02*
X85551743Y-137338475D01*
X85551743Y-137338475D02*
X85456505Y-137289427D01*
X85456505Y-137289427D02*
X85218410Y-137289427D01*
X85218410Y-137289427D02*
X85123172Y-137338475D01*
X85123172Y-137338475D02*
X85075553Y-137387522D01*
X85075553Y-137387522D02*
X85027934Y-137485617D01*
X85027934Y-137485617D02*
X85027934Y-137681808D01*
X85027934Y-137681808D02*
X85075553Y-137779903D01*
X85075553Y-137779903D02*
X85123172Y-137828951D01*
X85123172Y-137828951D02*
X85218410Y-137877998D01*
X85218410Y-140036093D02*
X85266029Y-139937998D01*
X85266029Y-139937998D02*
X85313648Y-139888951D01*
X85313648Y-139888951D02*
X85408886Y-139839903D01*
X85408886Y-139839903D02*
X85456505Y-139839903D01*
X85456505Y-139839903D02*
X85551743Y-139888951D01*
X85551743Y-139888951D02*
X85599362Y-139937998D01*
X85599362Y-139937998D02*
X85646981Y-140036093D01*
X85646981Y-140036093D02*
X85646981Y-140232284D01*
X85646981Y-140232284D02*
X85599362Y-140330379D01*
X85599362Y-140330379D02*
X85551743Y-140379427D01*
X85551743Y-140379427D02*
X85456505Y-140428474D01*
X85456505Y-140428474D02*
X85408886Y-140428474D01*
X85408886Y-140428474D02*
X85313648Y-140379427D01*
X85313648Y-140379427D02*
X85266029Y-140330379D01*
X85266029Y-140330379D02*
X85218410Y-140232284D01*
X85218410Y-140232284D02*
X85218410Y-140036093D01*
X85218410Y-140036093D02*
X85170791Y-139937998D01*
X85170791Y-139937998D02*
X85123172Y-139888951D01*
X85123172Y-139888951D02*
X85027934Y-139839903D01*
X85027934Y-139839903D02*
X84837458Y-139839903D01*
X84837458Y-139839903D02*
X84742220Y-139888951D01*
X84742220Y-139888951D02*
X84694601Y-139937998D01*
X84694601Y-139937998D02*
X84646981Y-140036093D01*
X84646981Y-140036093D02*
X84646981Y-140232284D01*
X84646981Y-140232284D02*
X84694601Y-140330379D01*
X84694601Y-140330379D02*
X84742220Y-140379427D01*
X84742220Y-140379427D02*
X84837458Y-140428474D01*
X84837458Y-140428474D02*
X85027934Y-140428474D01*
X85027934Y-140428474D02*
X85123172Y-140379427D01*
X85123172Y-140379427D02*
X85170791Y-140330379D01*
X85170791Y-140330379D02*
X85218410Y-140232284D01*
X85646981Y-142341331D02*
X85646981Y-143027998D01*
X85646981Y-143027998D02*
X84646981Y-142586569D01*
X85646981Y-145431331D02*
X85646981Y-145235141D01*
X85646981Y-145235141D02*
X85599362Y-145137045D01*
X85599362Y-145137045D02*
X85551743Y-145087998D01*
X85551743Y-145087998D02*
X85408886Y-144989903D01*
X85408886Y-144989903D02*
X85218410Y-144940855D01*
X85218410Y-144940855D02*
X84837458Y-144940855D01*
X84837458Y-144940855D02*
X84742220Y-144989903D01*
X84742220Y-144989903D02*
X84694601Y-145038950D01*
X84694601Y-145038950D02*
X84646981Y-145137045D01*
X84646981Y-145137045D02*
X84646981Y-145333236D01*
X84646981Y-145333236D02*
X84694601Y-145431331D01*
X84694601Y-145431331D02*
X84742220Y-145480379D01*
X84742220Y-145480379D02*
X84837458Y-145529426D01*
X84837458Y-145529426D02*
X85075553Y-145529426D01*
X85075553Y-145529426D02*
X85170791Y-145480379D01*
X85170791Y-145480379D02*
X85218410Y-145431331D01*
X85218410Y-145431331D02*
X85266029Y-145333236D01*
X85266029Y-145333236D02*
X85266029Y-145137045D01*
X85266029Y-145137045D02*
X85218410Y-145038950D01*
X85218410Y-145038950D02*
X85170791Y-144989903D01*
X85170791Y-144989903D02*
X85075553Y-144940855D01*
X85646981Y-148030855D02*
X85646981Y-147540379D01*
X85646981Y-147540379D02*
X85170791Y-147491331D01*
X85170791Y-147491331D02*
X85218410Y-147540379D01*
X85218410Y-147540379D02*
X85266029Y-147638474D01*
X85266029Y-147638474D02*
X85266029Y-147883712D01*
X85266029Y-147883712D02*
X85218410Y-147981807D01*
X85218410Y-147981807D02*
X85170791Y-148030855D01*
X85170791Y-148030855D02*
X85075553Y-148079902D01*
X85075553Y-148079902D02*
X84837458Y-148079902D01*
X84837458Y-148079902D02*
X84742220Y-148030855D01*
X84742220Y-148030855D02*
X84694601Y-147981807D01*
X84694601Y-147981807D02*
X84646981Y-147883712D01*
X84646981Y-147883712D02*
X84646981Y-147638474D01*
X84646981Y-147638474D02*
X84694601Y-147540379D01*
X84694601Y-147540379D02*
X84742220Y-147491331D01*
X85313648Y-150532283D02*
X84646981Y-150532283D01*
X85694601Y-150287045D02*
X84980315Y-150041807D01*
X84980315Y-150041807D02*
X84980315Y-150679426D01*
X85646981Y-152543235D02*
X85646981Y-153180854D01*
X85646981Y-153180854D02*
X85266029Y-152837521D01*
X85266029Y-152837521D02*
X85266029Y-152984664D01*
X85266029Y-152984664D02*
X85218410Y-153082759D01*
X85218410Y-153082759D02*
X85170791Y-153131807D01*
X85170791Y-153131807D02*
X85075553Y-153180854D01*
X85075553Y-153180854D02*
X84837458Y-153180854D01*
X84837458Y-153180854D02*
X84742220Y-153131807D01*
X84742220Y-153131807D02*
X84694601Y-153082759D01*
X84694601Y-153082759D02*
X84646981Y-152984664D01*
X84646981Y-152984664D02*
X84646981Y-152690378D01*
X84646981Y-152690378D02*
X84694601Y-152592283D01*
X84694601Y-152592283D02*
X84742220Y-152543235D01*
X85551743Y-155142759D02*
X85599362Y-155191807D01*
X85599362Y-155191807D02*
X85646981Y-155289902D01*
X85646981Y-155289902D02*
X85646981Y-155535140D01*
X85646981Y-155535140D02*
X85599362Y-155633235D01*
X85599362Y-155633235D02*
X85551743Y-155682283D01*
X85551743Y-155682283D02*
X85456505Y-155731330D01*
X85456505Y-155731330D02*
X85361267Y-155731330D01*
X85361267Y-155731330D02*
X85218410Y-155682283D01*
X85218410Y-155682283D02*
X84646981Y-155093711D01*
X84646981Y-155093711D02*
X84646981Y-155731330D01*
X84646981Y-158281806D02*
X84646981Y-157693235D01*
X84646981Y-157987521D02*
X85646981Y-157987521D01*
X85646981Y-157987521D02*
X85504124Y-157889425D01*
X85504124Y-157889425D02*
X85408886Y-157791330D01*
X85408886Y-157791330D02*
X85361267Y-157693235D01*
X105430869Y-111433561D02*
X105430869Y-112021656D01*
X105430869Y-112021656D02*
X105049917Y-111704989D01*
X105049917Y-111704989D02*
X105049917Y-111840704D01*
X105049917Y-111840704D02*
X105002298Y-111931180D01*
X105002298Y-111931180D02*
X104954679Y-111976418D01*
X104954679Y-111976418D02*
X104859441Y-112021656D01*
X104859441Y-112021656D02*
X104621346Y-112021656D01*
X104621346Y-112021656D02*
X104526108Y-111976418D01*
X104526108Y-111976418D02*
X104478489Y-111931180D01*
X104478489Y-111931180D02*
X104430869Y-111840704D01*
X104430869Y-111840704D02*
X104430869Y-111569275D01*
X104430869Y-111569275D02*
X104478489Y-111478799D01*
X104478489Y-111478799D02*
X104526108Y-111433561D01*
X105002298Y-112564513D02*
X105049917Y-112474037D01*
X105049917Y-112474037D02*
X105097536Y-112428799D01*
X105097536Y-112428799D02*
X105192774Y-112383561D01*
X105192774Y-112383561D02*
X105240393Y-112383561D01*
X105240393Y-112383561D02*
X105335631Y-112428799D01*
X105335631Y-112428799D02*
X105383250Y-112474037D01*
X105383250Y-112474037D02*
X105430869Y-112564513D01*
X105430869Y-112564513D02*
X105430869Y-112745466D01*
X105430869Y-112745466D02*
X105383250Y-112835942D01*
X105383250Y-112835942D02*
X105335631Y-112881180D01*
X105335631Y-112881180D02*
X105240393Y-112926418D01*
X105240393Y-112926418D02*
X105192774Y-112926418D01*
X105192774Y-112926418D02*
X105097536Y-112881180D01*
X105097536Y-112881180D02*
X105049917Y-112835942D01*
X105049917Y-112835942D02*
X105002298Y-112745466D01*
X105002298Y-112745466D02*
X105002298Y-112564513D01*
X105002298Y-112564513D02*
X104954679Y-112474037D01*
X104954679Y-112474037D02*
X104907060Y-112428799D01*
X104907060Y-112428799D02*
X104811822Y-112383561D01*
X104811822Y-112383561D02*
X104621346Y-112383561D01*
X104621346Y-112383561D02*
X104526108Y-112428799D01*
X104526108Y-112428799D02*
X104478489Y-112474037D01*
X104478489Y-112474037D02*
X104430869Y-112564513D01*
X104430869Y-112564513D02*
X104430869Y-112745466D01*
X104430869Y-112745466D02*
X104478489Y-112835942D01*
X104478489Y-112835942D02*
X104526108Y-112881180D01*
X104526108Y-112881180D02*
X104621346Y-112926418D01*
X104621346Y-112926418D02*
X104811822Y-112926418D01*
X104811822Y-112926418D02*
X104907060Y-112881180D01*
X104907060Y-112881180D02*
X104954679Y-112835942D01*
X104954679Y-112835942D02*
X105002298Y-112745466D01*
X105430869Y-113966895D02*
X105430869Y-114554990D01*
X105430869Y-114554990D02*
X105049917Y-114238323D01*
X105049917Y-114238323D02*
X105049917Y-114374038D01*
X105049917Y-114374038D02*
X105002298Y-114464514D01*
X105002298Y-114464514D02*
X104954679Y-114509752D01*
X104954679Y-114509752D02*
X104859441Y-114554990D01*
X104859441Y-114554990D02*
X104621346Y-114554990D01*
X104621346Y-114554990D02*
X104526108Y-114509752D01*
X104526108Y-114509752D02*
X104478489Y-114464514D01*
X104478489Y-114464514D02*
X104430869Y-114374038D01*
X104430869Y-114374038D02*
X104430869Y-114102609D01*
X104430869Y-114102609D02*
X104478489Y-114012133D01*
X104478489Y-114012133D02*
X104526108Y-113966895D01*
X105430869Y-114871657D02*
X105430869Y-115504990D01*
X105430869Y-115504990D02*
X104430869Y-115097847D01*
X105430869Y-116500229D02*
X105430869Y-117088324D01*
X105430869Y-117088324D02*
X105049917Y-116771657D01*
X105049917Y-116771657D02*
X105049917Y-116907372D01*
X105049917Y-116907372D02*
X105002298Y-116997848D01*
X105002298Y-116997848D02*
X104954679Y-117043086D01*
X104954679Y-117043086D02*
X104859441Y-117088324D01*
X104859441Y-117088324D02*
X104621346Y-117088324D01*
X104621346Y-117088324D02*
X104526108Y-117043086D01*
X104526108Y-117043086D02*
X104478489Y-116997848D01*
X104478489Y-116997848D02*
X104430869Y-116907372D01*
X104430869Y-116907372D02*
X104430869Y-116635943D01*
X104430869Y-116635943D02*
X104478489Y-116545467D01*
X104478489Y-116545467D02*
X104526108Y-116500229D01*
X105430869Y-117902610D02*
X105430869Y-117721657D01*
X105430869Y-117721657D02*
X105383250Y-117631181D01*
X105383250Y-117631181D02*
X105335631Y-117585943D01*
X105335631Y-117585943D02*
X105192774Y-117495467D01*
X105192774Y-117495467D02*
X105002298Y-117450229D01*
X105002298Y-117450229D02*
X104621346Y-117450229D01*
X104621346Y-117450229D02*
X104526108Y-117495467D01*
X104526108Y-117495467D02*
X104478489Y-117540705D01*
X104478489Y-117540705D02*
X104430869Y-117631181D01*
X104430869Y-117631181D02*
X104430869Y-117812134D01*
X104430869Y-117812134D02*
X104478489Y-117902610D01*
X104478489Y-117902610D02*
X104526108Y-117947848D01*
X104526108Y-117947848D02*
X104621346Y-117993086D01*
X104621346Y-117993086D02*
X104859441Y-117993086D01*
X104859441Y-117993086D02*
X104954679Y-117947848D01*
X104954679Y-117947848D02*
X105002298Y-117902610D01*
X105002298Y-117902610D02*
X105049917Y-117812134D01*
X105049917Y-117812134D02*
X105049917Y-117631181D01*
X105049917Y-117631181D02*
X105002298Y-117540705D01*
X105002298Y-117540705D02*
X104954679Y-117495467D01*
X104954679Y-117495467D02*
X104859441Y-117450229D01*
X105430869Y-119033563D02*
X105430869Y-119621658D01*
X105430869Y-119621658D02*
X105049917Y-119304991D01*
X105049917Y-119304991D02*
X105049917Y-119440706D01*
X105049917Y-119440706D02*
X105002298Y-119531182D01*
X105002298Y-119531182D02*
X104954679Y-119576420D01*
X104954679Y-119576420D02*
X104859441Y-119621658D01*
X104859441Y-119621658D02*
X104621346Y-119621658D01*
X104621346Y-119621658D02*
X104526108Y-119576420D01*
X104526108Y-119576420D02*
X104478489Y-119531182D01*
X104478489Y-119531182D02*
X104430869Y-119440706D01*
X104430869Y-119440706D02*
X104430869Y-119169277D01*
X104430869Y-119169277D02*
X104478489Y-119078801D01*
X104478489Y-119078801D02*
X104526108Y-119033563D01*
X105430869Y-120481182D02*
X105430869Y-120028801D01*
X105430869Y-120028801D02*
X104954679Y-119983563D01*
X104954679Y-119983563D02*
X105002298Y-120028801D01*
X105002298Y-120028801D02*
X105049917Y-120119277D01*
X105049917Y-120119277D02*
X105049917Y-120345468D01*
X105049917Y-120345468D02*
X105002298Y-120435944D01*
X105002298Y-120435944D02*
X104954679Y-120481182D01*
X104954679Y-120481182D02*
X104859441Y-120526420D01*
X104859441Y-120526420D02*
X104621346Y-120526420D01*
X104621346Y-120526420D02*
X104526108Y-120481182D01*
X104526108Y-120481182D02*
X104478489Y-120435944D01*
X104478489Y-120435944D02*
X104430869Y-120345468D01*
X104430869Y-120345468D02*
X104430869Y-120119277D01*
X104430869Y-120119277D02*
X104478489Y-120028801D01*
X104478489Y-120028801D02*
X104526108Y-119983563D01*
X105430869Y-121566897D02*
X105430869Y-122154992D01*
X105430869Y-122154992D02*
X105049917Y-121838325D01*
X105049917Y-121838325D02*
X105049917Y-121974040D01*
X105049917Y-121974040D02*
X105002298Y-122064516D01*
X105002298Y-122064516D02*
X104954679Y-122109754D01*
X104954679Y-122109754D02*
X104859441Y-122154992D01*
X104859441Y-122154992D02*
X104621346Y-122154992D01*
X104621346Y-122154992D02*
X104526108Y-122109754D01*
X104526108Y-122109754D02*
X104478489Y-122064516D01*
X104478489Y-122064516D02*
X104430869Y-121974040D01*
X104430869Y-121974040D02*
X104430869Y-121702611D01*
X104430869Y-121702611D02*
X104478489Y-121612135D01*
X104478489Y-121612135D02*
X104526108Y-121566897D01*
X105097536Y-122969278D02*
X104430869Y-122969278D01*
X105478489Y-122743087D02*
X104764203Y-122516897D01*
X104764203Y-122516897D02*
X104764203Y-123104992D01*
X105430869Y-124100231D02*
X105430869Y-124688326D01*
X105430869Y-124688326D02*
X105049917Y-124371659D01*
X105049917Y-124371659D02*
X105049917Y-124507374D01*
X105049917Y-124507374D02*
X105002298Y-124597850D01*
X105002298Y-124597850D02*
X104954679Y-124643088D01*
X104954679Y-124643088D02*
X104859441Y-124688326D01*
X104859441Y-124688326D02*
X104621346Y-124688326D01*
X104621346Y-124688326D02*
X104526108Y-124643088D01*
X104526108Y-124643088D02*
X104478489Y-124597850D01*
X104478489Y-124597850D02*
X104430869Y-124507374D01*
X104430869Y-124507374D02*
X104430869Y-124235945D01*
X104430869Y-124235945D02*
X104478489Y-124145469D01*
X104478489Y-124145469D02*
X104526108Y-124100231D01*
X105430869Y-125004993D02*
X105430869Y-125593088D01*
X105430869Y-125593088D02*
X105049917Y-125276421D01*
X105049917Y-125276421D02*
X105049917Y-125412136D01*
X105049917Y-125412136D02*
X105002298Y-125502612D01*
X105002298Y-125502612D02*
X104954679Y-125547850D01*
X104954679Y-125547850D02*
X104859441Y-125593088D01*
X104859441Y-125593088D02*
X104621346Y-125593088D01*
X104621346Y-125593088D02*
X104526108Y-125547850D01*
X104526108Y-125547850D02*
X104478489Y-125502612D01*
X104478489Y-125502612D02*
X104430869Y-125412136D01*
X104430869Y-125412136D02*
X104430869Y-125140707D01*
X104430869Y-125140707D02*
X104478489Y-125050231D01*
X104478489Y-125050231D02*
X104526108Y-125004993D01*
X105430869Y-126633565D02*
X105430869Y-127221660D01*
X105430869Y-127221660D02*
X105049917Y-126904993D01*
X105049917Y-126904993D02*
X105049917Y-127040708D01*
X105049917Y-127040708D02*
X105002298Y-127131184D01*
X105002298Y-127131184D02*
X104954679Y-127176422D01*
X104954679Y-127176422D02*
X104859441Y-127221660D01*
X104859441Y-127221660D02*
X104621346Y-127221660D01*
X104621346Y-127221660D02*
X104526108Y-127176422D01*
X104526108Y-127176422D02*
X104478489Y-127131184D01*
X104478489Y-127131184D02*
X104430869Y-127040708D01*
X104430869Y-127040708D02*
X104430869Y-126769279D01*
X104430869Y-126769279D02*
X104478489Y-126678803D01*
X104478489Y-126678803D02*
X104526108Y-126633565D01*
X105335631Y-127583565D02*
X105383250Y-127628803D01*
X105383250Y-127628803D02*
X105430869Y-127719279D01*
X105430869Y-127719279D02*
X105430869Y-127945470D01*
X105430869Y-127945470D02*
X105383250Y-128035946D01*
X105383250Y-128035946D02*
X105335631Y-128081184D01*
X105335631Y-128081184D02*
X105240393Y-128126422D01*
X105240393Y-128126422D02*
X105145155Y-128126422D01*
X105145155Y-128126422D02*
X105002298Y-128081184D01*
X105002298Y-128081184D02*
X104430869Y-127538327D01*
X104430869Y-127538327D02*
X104430869Y-128126422D01*
X105430869Y-129166899D02*
X105430869Y-129754994D01*
X105430869Y-129754994D02*
X105049917Y-129438327D01*
X105049917Y-129438327D02*
X105049917Y-129574042D01*
X105049917Y-129574042D02*
X105002298Y-129664518D01*
X105002298Y-129664518D02*
X104954679Y-129709756D01*
X104954679Y-129709756D02*
X104859441Y-129754994D01*
X104859441Y-129754994D02*
X104621346Y-129754994D01*
X104621346Y-129754994D02*
X104526108Y-129709756D01*
X104526108Y-129709756D02*
X104478489Y-129664518D01*
X104478489Y-129664518D02*
X104430869Y-129574042D01*
X104430869Y-129574042D02*
X104430869Y-129302613D01*
X104430869Y-129302613D02*
X104478489Y-129212137D01*
X104478489Y-129212137D02*
X104526108Y-129166899D01*
X104430869Y-130659756D02*
X104430869Y-130116899D01*
X104430869Y-130388327D02*
X105430869Y-130388327D01*
X105430869Y-130388327D02*
X105288012Y-130297851D01*
X105288012Y-130297851D02*
X105192774Y-130207375D01*
X105192774Y-130207375D02*
X105145155Y-130116899D01*
X105430869Y-131700233D02*
X105430869Y-132288328D01*
X105430869Y-132288328D02*
X105049917Y-131971661D01*
X105049917Y-131971661D02*
X105049917Y-132107376D01*
X105049917Y-132107376D02*
X105002298Y-132197852D01*
X105002298Y-132197852D02*
X104954679Y-132243090D01*
X104954679Y-132243090D02*
X104859441Y-132288328D01*
X104859441Y-132288328D02*
X104621346Y-132288328D01*
X104621346Y-132288328D02*
X104526108Y-132243090D01*
X104526108Y-132243090D02*
X104478489Y-132197852D01*
X104478489Y-132197852D02*
X104430869Y-132107376D01*
X104430869Y-132107376D02*
X104430869Y-131835947D01*
X104430869Y-131835947D02*
X104478489Y-131745471D01*
X104478489Y-131745471D02*
X104526108Y-131700233D01*
X105430869Y-132876423D02*
X105430869Y-132966900D01*
X105430869Y-132966900D02*
X105383250Y-133057376D01*
X105383250Y-133057376D02*
X105335631Y-133102614D01*
X105335631Y-133102614D02*
X105240393Y-133147852D01*
X105240393Y-133147852D02*
X105049917Y-133193090D01*
X105049917Y-133193090D02*
X104811822Y-133193090D01*
X104811822Y-133193090D02*
X104621346Y-133147852D01*
X104621346Y-133147852D02*
X104526108Y-133102614D01*
X104526108Y-133102614D02*
X104478489Y-133057376D01*
X104478489Y-133057376D02*
X104430869Y-132966900D01*
X104430869Y-132966900D02*
X104430869Y-132876423D01*
X104430869Y-132876423D02*
X104478489Y-132785947D01*
X104478489Y-132785947D02*
X104526108Y-132740709D01*
X104526108Y-132740709D02*
X104621346Y-132695471D01*
X104621346Y-132695471D02*
X104811822Y-132650233D01*
X104811822Y-132650233D02*
X105049917Y-132650233D01*
X105049917Y-132650233D02*
X105240393Y-132695471D01*
X105240393Y-132695471D02*
X105335631Y-132740709D01*
X105335631Y-132740709D02*
X105383250Y-132785947D01*
X105383250Y-132785947D02*
X105430869Y-132876423D01*
X105335631Y-134278805D02*
X105383250Y-134324043D01*
X105383250Y-134324043D02*
X105430869Y-134414519D01*
X105430869Y-134414519D02*
X105430869Y-134640710D01*
X105430869Y-134640710D02*
X105383250Y-134731186D01*
X105383250Y-134731186D02*
X105335631Y-134776424D01*
X105335631Y-134776424D02*
X105240393Y-134821662D01*
X105240393Y-134821662D02*
X105145155Y-134821662D01*
X105145155Y-134821662D02*
X105002298Y-134776424D01*
X105002298Y-134776424D02*
X104430869Y-134233567D01*
X104430869Y-134233567D02*
X104430869Y-134821662D01*
X104430869Y-135274043D02*
X104430869Y-135454995D01*
X104430869Y-135454995D02*
X104478489Y-135545472D01*
X104478489Y-135545472D02*
X104526108Y-135590710D01*
X104526108Y-135590710D02*
X104668965Y-135681186D01*
X104668965Y-135681186D02*
X104859441Y-135726424D01*
X104859441Y-135726424D02*
X105240393Y-135726424D01*
X105240393Y-135726424D02*
X105335631Y-135681186D01*
X105335631Y-135681186D02*
X105383250Y-135635948D01*
X105383250Y-135635948D02*
X105430869Y-135545472D01*
X105430869Y-135545472D02*
X105430869Y-135364519D01*
X105430869Y-135364519D02*
X105383250Y-135274043D01*
X105383250Y-135274043D02*
X105335631Y-135228805D01*
X105335631Y-135228805D02*
X105240393Y-135183567D01*
X105240393Y-135183567D02*
X105002298Y-135183567D01*
X105002298Y-135183567D02*
X104907060Y-135228805D01*
X104907060Y-135228805D02*
X104859441Y-135274043D01*
X104859441Y-135274043D02*
X104811822Y-135364519D01*
X104811822Y-135364519D02*
X104811822Y-135545472D01*
X104811822Y-135545472D02*
X104859441Y-135635948D01*
X104859441Y-135635948D02*
X104907060Y-135681186D01*
X104907060Y-135681186D02*
X105002298Y-135726424D01*
X105335631Y-136812139D02*
X105383250Y-136857377D01*
X105383250Y-136857377D02*
X105430869Y-136947853D01*
X105430869Y-136947853D02*
X105430869Y-137174044D01*
X105430869Y-137174044D02*
X105383250Y-137264520D01*
X105383250Y-137264520D02*
X105335631Y-137309758D01*
X105335631Y-137309758D02*
X105240393Y-137354996D01*
X105240393Y-137354996D02*
X105145155Y-137354996D01*
X105145155Y-137354996D02*
X105002298Y-137309758D01*
X105002298Y-137309758D02*
X104430869Y-136766901D01*
X104430869Y-136766901D02*
X104430869Y-137354996D01*
X105002298Y-137897853D02*
X105049917Y-137807377D01*
X105049917Y-137807377D02*
X105097536Y-137762139D01*
X105097536Y-137762139D02*
X105192774Y-137716901D01*
X105192774Y-137716901D02*
X105240393Y-137716901D01*
X105240393Y-137716901D02*
X105335631Y-137762139D01*
X105335631Y-137762139D02*
X105383250Y-137807377D01*
X105383250Y-137807377D02*
X105430869Y-137897853D01*
X105430869Y-137897853D02*
X105430869Y-138078806D01*
X105430869Y-138078806D02*
X105383250Y-138169282D01*
X105383250Y-138169282D02*
X105335631Y-138214520D01*
X105335631Y-138214520D02*
X105240393Y-138259758D01*
X105240393Y-138259758D02*
X105192774Y-138259758D01*
X105192774Y-138259758D02*
X105097536Y-138214520D01*
X105097536Y-138214520D02*
X105049917Y-138169282D01*
X105049917Y-138169282D02*
X105002298Y-138078806D01*
X105002298Y-138078806D02*
X105002298Y-137897853D01*
X105002298Y-137897853D02*
X104954679Y-137807377D01*
X104954679Y-137807377D02*
X104907060Y-137762139D01*
X104907060Y-137762139D02*
X104811822Y-137716901D01*
X104811822Y-137716901D02*
X104621346Y-137716901D01*
X104621346Y-137716901D02*
X104526108Y-137762139D01*
X104526108Y-137762139D02*
X104478489Y-137807377D01*
X104478489Y-137807377D02*
X104430869Y-137897853D01*
X104430869Y-137897853D02*
X104430869Y-138078806D01*
X104430869Y-138078806D02*
X104478489Y-138169282D01*
X104478489Y-138169282D02*
X104526108Y-138214520D01*
X104526108Y-138214520D02*
X104621346Y-138259758D01*
X104621346Y-138259758D02*
X104811822Y-138259758D01*
X104811822Y-138259758D02*
X104907060Y-138214520D01*
X104907060Y-138214520D02*
X104954679Y-138169282D01*
X104954679Y-138169282D02*
X105002298Y-138078806D01*
X105335631Y-139345473D02*
X105383250Y-139390711D01*
X105383250Y-139390711D02*
X105430869Y-139481187D01*
X105430869Y-139481187D02*
X105430869Y-139707378D01*
X105430869Y-139707378D02*
X105383250Y-139797854D01*
X105383250Y-139797854D02*
X105335631Y-139843092D01*
X105335631Y-139843092D02*
X105240393Y-139888330D01*
X105240393Y-139888330D02*
X105145155Y-139888330D01*
X105145155Y-139888330D02*
X105002298Y-139843092D01*
X105002298Y-139843092D02*
X104430869Y-139300235D01*
X104430869Y-139300235D02*
X104430869Y-139888330D01*
X105430869Y-140204997D02*
X105430869Y-140838330D01*
X105430869Y-140838330D02*
X104430869Y-140431187D01*
X105335631Y-141878807D02*
X105383250Y-141924045D01*
X105383250Y-141924045D02*
X105430869Y-142014521D01*
X105430869Y-142014521D02*
X105430869Y-142240712D01*
X105430869Y-142240712D02*
X105383250Y-142331188D01*
X105383250Y-142331188D02*
X105335631Y-142376426D01*
X105335631Y-142376426D02*
X105240393Y-142421664D01*
X105240393Y-142421664D02*
X105145155Y-142421664D01*
X105145155Y-142421664D02*
X105002298Y-142376426D01*
X105002298Y-142376426D02*
X104430869Y-141833569D01*
X104430869Y-141833569D02*
X104430869Y-142421664D01*
X105430869Y-143235950D02*
X105430869Y-143054997D01*
X105430869Y-143054997D02*
X105383250Y-142964521D01*
X105383250Y-142964521D02*
X105335631Y-142919283D01*
X105335631Y-142919283D02*
X105192774Y-142828807D01*
X105192774Y-142828807D02*
X105002298Y-142783569D01*
X105002298Y-142783569D02*
X104621346Y-142783569D01*
X104621346Y-142783569D02*
X104526108Y-142828807D01*
X104526108Y-142828807D02*
X104478489Y-142874045D01*
X104478489Y-142874045D02*
X104430869Y-142964521D01*
X104430869Y-142964521D02*
X104430869Y-143145474D01*
X104430869Y-143145474D02*
X104478489Y-143235950D01*
X104478489Y-143235950D02*
X104526108Y-143281188D01*
X104526108Y-143281188D02*
X104621346Y-143326426D01*
X104621346Y-143326426D02*
X104859441Y-143326426D01*
X104859441Y-143326426D02*
X104954679Y-143281188D01*
X104954679Y-143281188D02*
X105002298Y-143235950D01*
X105002298Y-143235950D02*
X105049917Y-143145474D01*
X105049917Y-143145474D02*
X105049917Y-142964521D01*
X105049917Y-142964521D02*
X105002298Y-142874045D01*
X105002298Y-142874045D02*
X104954679Y-142828807D01*
X104954679Y-142828807D02*
X104859441Y-142783569D01*
X105335631Y-144412141D02*
X105383250Y-144457379D01*
X105383250Y-144457379D02*
X105430869Y-144547855D01*
X105430869Y-144547855D02*
X105430869Y-144774046D01*
X105430869Y-144774046D02*
X105383250Y-144864522D01*
X105383250Y-144864522D02*
X105335631Y-144909760D01*
X105335631Y-144909760D02*
X105240393Y-144954998D01*
X105240393Y-144954998D02*
X105145155Y-144954998D01*
X105145155Y-144954998D02*
X105002298Y-144909760D01*
X105002298Y-144909760D02*
X104430869Y-144366903D01*
X104430869Y-144366903D02*
X104430869Y-144954998D01*
X105430869Y-145814522D02*
X105430869Y-145362141D01*
X105430869Y-145362141D02*
X104954679Y-145316903D01*
X104954679Y-145316903D02*
X105002298Y-145362141D01*
X105002298Y-145362141D02*
X105049917Y-145452617D01*
X105049917Y-145452617D02*
X105049917Y-145678808D01*
X105049917Y-145678808D02*
X105002298Y-145769284D01*
X105002298Y-145769284D02*
X104954679Y-145814522D01*
X104954679Y-145814522D02*
X104859441Y-145859760D01*
X104859441Y-145859760D02*
X104621346Y-145859760D01*
X104621346Y-145859760D02*
X104526108Y-145814522D01*
X104526108Y-145814522D02*
X104478489Y-145769284D01*
X104478489Y-145769284D02*
X104430869Y-145678808D01*
X104430869Y-145678808D02*
X104430869Y-145452617D01*
X104430869Y-145452617D02*
X104478489Y-145362141D01*
X104478489Y-145362141D02*
X104526108Y-145316903D01*
X105335631Y-146945475D02*
X105383250Y-146990713D01*
X105383250Y-146990713D02*
X105430869Y-147081189D01*
X105430869Y-147081189D02*
X105430869Y-147307380D01*
X105430869Y-147307380D02*
X105383250Y-147397856D01*
X105383250Y-147397856D02*
X105335631Y-147443094D01*
X105335631Y-147443094D02*
X105240393Y-147488332D01*
X105240393Y-147488332D02*
X105145155Y-147488332D01*
X105145155Y-147488332D02*
X105002298Y-147443094D01*
X105002298Y-147443094D02*
X104430869Y-146900237D01*
X104430869Y-146900237D02*
X104430869Y-147488332D01*
X105097536Y-148302618D02*
X104430869Y-148302618D01*
X105478489Y-148076427D02*
X104764203Y-147850237D01*
X104764203Y-147850237D02*
X104764203Y-148438332D01*
X105335631Y-149478809D02*
X105383250Y-149524047D01*
X105383250Y-149524047D02*
X105430869Y-149614523D01*
X105430869Y-149614523D02*
X105430869Y-149840714D01*
X105430869Y-149840714D02*
X105383250Y-149931190D01*
X105383250Y-149931190D02*
X105335631Y-149976428D01*
X105335631Y-149976428D02*
X105240393Y-150021666D01*
X105240393Y-150021666D02*
X105145155Y-150021666D01*
X105145155Y-150021666D02*
X105002298Y-149976428D01*
X105002298Y-149976428D02*
X104430869Y-149433571D01*
X104430869Y-149433571D02*
X104430869Y-150021666D01*
X105430869Y-150338333D02*
X105430869Y-150926428D01*
X105430869Y-150926428D02*
X105049917Y-150609761D01*
X105049917Y-150609761D02*
X105049917Y-150745476D01*
X105049917Y-150745476D02*
X105002298Y-150835952D01*
X105002298Y-150835952D02*
X104954679Y-150881190D01*
X104954679Y-150881190D02*
X104859441Y-150926428D01*
X104859441Y-150926428D02*
X104621346Y-150926428D01*
X104621346Y-150926428D02*
X104526108Y-150881190D01*
X104526108Y-150881190D02*
X104478489Y-150835952D01*
X104478489Y-150835952D02*
X104430869Y-150745476D01*
X104430869Y-150745476D02*
X104430869Y-150474047D01*
X104430869Y-150474047D02*
X104478489Y-150383571D01*
X104478489Y-150383571D02*
X104526108Y-150338333D01*
X105335631Y-152012143D02*
X105383250Y-152057381D01*
X105383250Y-152057381D02*
X105430869Y-152147857D01*
X105430869Y-152147857D02*
X105430869Y-152374048D01*
X105430869Y-152374048D02*
X105383250Y-152464524D01*
X105383250Y-152464524D02*
X105335631Y-152509762D01*
X105335631Y-152509762D02*
X105240393Y-152555000D01*
X105240393Y-152555000D02*
X105145155Y-152555000D01*
X105145155Y-152555000D02*
X105002298Y-152509762D01*
X105002298Y-152509762D02*
X104430869Y-151966905D01*
X104430869Y-151966905D02*
X104430869Y-152555000D01*
X105335631Y-152916905D02*
X105383250Y-152962143D01*
X105383250Y-152962143D02*
X105430869Y-153052619D01*
X105430869Y-153052619D02*
X105430869Y-153278810D01*
X105430869Y-153278810D02*
X105383250Y-153369286D01*
X105383250Y-153369286D02*
X105335631Y-153414524D01*
X105335631Y-153414524D02*
X105240393Y-153459762D01*
X105240393Y-153459762D02*
X105145155Y-153459762D01*
X105145155Y-153459762D02*
X105002298Y-153414524D01*
X105002298Y-153414524D02*
X104430869Y-152871667D01*
X104430869Y-152871667D02*
X104430869Y-153459762D01*
X105335631Y-154545477D02*
X105383250Y-154590715D01*
X105383250Y-154590715D02*
X105430869Y-154681191D01*
X105430869Y-154681191D02*
X105430869Y-154907382D01*
X105430869Y-154907382D02*
X105383250Y-154997858D01*
X105383250Y-154997858D02*
X105335631Y-155043096D01*
X105335631Y-155043096D02*
X105240393Y-155088334D01*
X105240393Y-155088334D02*
X105145155Y-155088334D01*
X105145155Y-155088334D02*
X105002298Y-155043096D01*
X105002298Y-155043096D02*
X104430869Y-154500239D01*
X104430869Y-154500239D02*
X104430869Y-155088334D01*
X104430869Y-155993096D02*
X104430869Y-155450239D01*
X104430869Y-155721667D02*
X105430869Y-155721667D01*
X105430869Y-155721667D02*
X105288012Y-155631191D01*
X105288012Y-155631191D02*
X105192774Y-155540715D01*
X105192774Y-155540715D02*
X105145155Y-155450239D01*
X105335631Y-157078811D02*
X105383250Y-157124049D01*
X105383250Y-157124049D02*
X105430869Y-157214525D01*
X105430869Y-157214525D02*
X105430869Y-157440716D01*
X105430869Y-157440716D02*
X105383250Y-157531192D01*
X105383250Y-157531192D02*
X105335631Y-157576430D01*
X105335631Y-157576430D02*
X105240393Y-157621668D01*
X105240393Y-157621668D02*
X105145155Y-157621668D01*
X105145155Y-157621668D02*
X105002298Y-157576430D01*
X105002298Y-157576430D02*
X104430869Y-157033573D01*
X104430869Y-157033573D02*
X104430869Y-157621668D01*
X105430869Y-158209763D02*
X105430869Y-158300240D01*
X105430869Y-158300240D02*
X105383250Y-158390716D01*
X105383250Y-158390716D02*
X105335631Y-158435954D01*
X105335631Y-158435954D02*
X105240393Y-158481192D01*
X105240393Y-158481192D02*
X105049917Y-158526430D01*
X105049917Y-158526430D02*
X104811822Y-158526430D01*
X104811822Y-158526430D02*
X104621346Y-158481192D01*
X104621346Y-158481192D02*
X104526108Y-158435954D01*
X104526108Y-158435954D02*
X104478489Y-158390716D01*
X104478489Y-158390716D02*
X104430869Y-158300240D01*
X104430869Y-158300240D02*
X104430869Y-158209763D01*
X104430869Y-158209763D02*
X104478489Y-158119287D01*
X104478489Y-158119287D02*
X104526108Y-158074049D01*
X104526108Y-158074049D02*
X104621346Y-158028811D01*
X104621346Y-158028811D02*
X104811822Y-157983573D01*
X104811822Y-157983573D02*
X105049917Y-157983573D01*
X105049917Y-157983573D02*
X105240393Y-158028811D01*
X105240393Y-158028811D02*
X105335631Y-158074049D01*
X105335631Y-158074049D02*
X105383250Y-158119287D01*
X105383250Y-158119287D02*
X105430869Y-158209763D01*
D11*
X46171566Y-155654819D02*
X46171566Y-156369104D01*
X46171566Y-156369104D02*
X46123947Y-156511961D01*
X46123947Y-156511961D02*
X46028709Y-156607200D01*
X46028709Y-156607200D02*
X45885852Y-156654819D01*
X45885852Y-156654819D02*
X45790614Y-156654819D01*
X47123947Y-155654819D02*
X46647757Y-155654819D01*
X46647757Y-155654819D02*
X46600138Y-156131009D01*
X46600138Y-156131009D02*
X46647757Y-156083390D01*
X46647757Y-156083390D02*
X46742995Y-156035771D01*
X46742995Y-156035771D02*
X46981090Y-156035771D01*
X46981090Y-156035771D02*
X47076328Y-156083390D01*
X47076328Y-156083390D02*
X47123947Y-156131009D01*
X47123947Y-156131009D02*
X47171566Y-156226247D01*
X47171566Y-156226247D02*
X47171566Y-156464342D01*
X47171566Y-156464342D02*
X47123947Y-156559580D01*
X47123947Y-156559580D02*
X47076328Y-156607200D01*
X47076328Y-156607200D02*
X46981090Y-156654819D01*
X46981090Y-156654819D02*
X46742995Y-156654819D01*
X46742995Y-156654819D02*
X46647757Y-156607200D01*
X46647757Y-156607200D02*
X46600138Y-156559580D01*
X42473333Y-110320533D02*
X42140000Y-109844342D01*
X41901905Y-110320533D02*
X41901905Y-109320533D01*
X41901905Y-109320533D02*
X42282857Y-109320533D01*
X42282857Y-109320533D02*
X42378095Y-109368152D01*
X42378095Y-109368152D02*
X42425714Y-109415771D01*
X42425714Y-109415771D02*
X42473333Y-109511009D01*
X42473333Y-109511009D02*
X42473333Y-109653866D01*
X42473333Y-109653866D02*
X42425714Y-109749104D01*
X42425714Y-109749104D02*
X42378095Y-109796723D01*
X42378095Y-109796723D02*
X42282857Y-109844342D01*
X42282857Y-109844342D02*
X41901905Y-109844342D01*
X43044762Y-109749104D02*
X42949524Y-109701485D01*
X42949524Y-109701485D02*
X42901905Y-109653866D01*
X42901905Y-109653866D02*
X42854286Y-109558628D01*
X42854286Y-109558628D02*
X42854286Y-109511009D01*
X42854286Y-109511009D02*
X42901905Y-109415771D01*
X42901905Y-109415771D02*
X42949524Y-109368152D01*
X42949524Y-109368152D02*
X43044762Y-109320533D01*
X43044762Y-109320533D02*
X43235238Y-109320533D01*
X43235238Y-109320533D02*
X43330476Y-109368152D01*
X43330476Y-109368152D02*
X43378095Y-109415771D01*
X43378095Y-109415771D02*
X43425714Y-109511009D01*
X43425714Y-109511009D02*
X43425714Y-109558628D01*
X43425714Y-109558628D02*
X43378095Y-109653866D01*
X43378095Y-109653866D02*
X43330476Y-109701485D01*
X43330476Y-109701485D02*
X43235238Y-109749104D01*
X43235238Y-109749104D02*
X43044762Y-109749104D01*
X43044762Y-109749104D02*
X42949524Y-109796723D01*
X42949524Y-109796723D02*
X42901905Y-109844342D01*
X42901905Y-109844342D02*
X42854286Y-109939580D01*
X42854286Y-109939580D02*
X42854286Y-110130056D01*
X42854286Y-110130056D02*
X42901905Y-110225294D01*
X42901905Y-110225294D02*
X42949524Y-110272914D01*
X42949524Y-110272914D02*
X43044762Y-110320533D01*
X43044762Y-110320533D02*
X43235238Y-110320533D01*
X43235238Y-110320533D02*
X43330476Y-110272914D01*
X43330476Y-110272914D02*
X43378095Y-110225294D01*
X43378095Y-110225294D02*
X43425714Y-110130056D01*
X43425714Y-110130056D02*
X43425714Y-109939580D01*
X43425714Y-109939580D02*
X43378095Y-109844342D01*
X43378095Y-109844342D02*
X43330476Y-109796723D01*
X43330476Y-109796723D02*
X43235238Y-109749104D01*
X117957142Y-124604819D02*
X117623809Y-124128628D01*
X117385714Y-124604819D02*
X117385714Y-123604819D01*
X117385714Y-123604819D02*
X117766666Y-123604819D01*
X117766666Y-123604819D02*
X117861904Y-123652438D01*
X117861904Y-123652438D02*
X117909523Y-123700057D01*
X117909523Y-123700057D02*
X117957142Y-123795295D01*
X117957142Y-123795295D02*
X117957142Y-123938152D01*
X117957142Y-123938152D02*
X117909523Y-124033390D01*
X117909523Y-124033390D02*
X117861904Y-124081009D01*
X117861904Y-124081009D02*
X117766666Y-124128628D01*
X117766666Y-124128628D02*
X117385714Y-124128628D01*
X118909523Y-124604819D02*
X118338095Y-124604819D01*
X118623809Y-124604819D02*
X118623809Y-123604819D01*
X118623809Y-123604819D02*
X118528571Y-123747676D01*
X118528571Y-123747676D02*
X118433333Y-123842914D01*
X118433333Y-123842914D02*
X118338095Y-123890533D01*
X119290476Y-123700057D02*
X119338095Y-123652438D01*
X119338095Y-123652438D02*
X119433333Y-123604819D01*
X119433333Y-123604819D02*
X119671428Y-123604819D01*
X119671428Y-123604819D02*
X119766666Y-123652438D01*
X119766666Y-123652438D02*
X119814285Y-123700057D01*
X119814285Y-123700057D02*
X119861904Y-123795295D01*
X119861904Y-123795295D02*
X119861904Y-123890533D01*
X119861904Y-123890533D02*
X119814285Y-124033390D01*
X119814285Y-124033390D02*
X119242857Y-124604819D01*
X119242857Y-124604819D02*
X119861904Y-124604819D01*
X128264819Y-102088094D02*
X127264819Y-102088094D01*
X127264819Y-102088094D02*
X127264819Y-101849999D01*
X127264819Y-101849999D02*
X127312438Y-101707142D01*
X127312438Y-101707142D02*
X127407676Y-101611904D01*
X127407676Y-101611904D02*
X127502914Y-101564285D01*
X127502914Y-101564285D02*
X127693390Y-101516666D01*
X127693390Y-101516666D02*
X127836247Y-101516666D01*
X127836247Y-101516666D02*
X128026723Y-101564285D01*
X128026723Y-101564285D02*
X128121961Y-101611904D01*
X128121961Y-101611904D02*
X128217200Y-101707142D01*
X128217200Y-101707142D02*
X128264819Y-101849999D01*
X128264819Y-101849999D02*
X128264819Y-102088094D01*
X128264819Y-100564285D02*
X128264819Y-101135713D01*
X128264819Y-100849999D02*
X127264819Y-100849999D01*
X127264819Y-100849999D02*
X127407676Y-100945237D01*
X127407676Y-100945237D02*
X127502914Y-101040475D01*
X127502914Y-101040475D02*
X127550533Y-101135713D01*
X131934819Y-90266666D02*
X131458628Y-90599999D01*
X131934819Y-90838094D02*
X130934819Y-90838094D01*
X130934819Y-90838094D02*
X130934819Y-90457142D01*
X130934819Y-90457142D02*
X130982438Y-90361904D01*
X130982438Y-90361904D02*
X131030057Y-90314285D01*
X131030057Y-90314285D02*
X131125295Y-90266666D01*
X131125295Y-90266666D02*
X131268152Y-90266666D01*
X131268152Y-90266666D02*
X131363390Y-90314285D01*
X131363390Y-90314285D02*
X131411009Y-90361904D01*
X131411009Y-90361904D02*
X131458628Y-90457142D01*
X131458628Y-90457142D02*
X131458628Y-90838094D01*
X131030057Y-89885713D02*
X130982438Y-89838094D01*
X130982438Y-89838094D02*
X130934819Y-89742856D01*
X130934819Y-89742856D02*
X130934819Y-89504761D01*
X130934819Y-89504761D02*
X130982438Y-89409523D01*
X130982438Y-89409523D02*
X131030057Y-89361904D01*
X131030057Y-89361904D02*
X131125295Y-89314285D01*
X131125295Y-89314285D02*
X131220533Y-89314285D01*
X131220533Y-89314285D02*
X131363390Y-89361904D01*
X131363390Y-89361904D02*
X131934819Y-89933332D01*
X131934819Y-89933332D02*
X131934819Y-89314285D01*
X138264819Y-102088094D02*
X137264819Y-102088094D01*
X137264819Y-102088094D02*
X137264819Y-101849999D01*
X137264819Y-101849999D02*
X137312438Y-101707142D01*
X137312438Y-101707142D02*
X137407676Y-101611904D01*
X137407676Y-101611904D02*
X137502914Y-101564285D01*
X137502914Y-101564285D02*
X137693390Y-101516666D01*
X137693390Y-101516666D02*
X137836247Y-101516666D01*
X137836247Y-101516666D02*
X138026723Y-101564285D01*
X138026723Y-101564285D02*
X138121961Y-101611904D01*
X138121961Y-101611904D02*
X138217200Y-101707142D01*
X138217200Y-101707142D02*
X138264819Y-101849999D01*
X138264819Y-101849999D02*
X138264819Y-102088094D01*
X137360057Y-101135713D02*
X137312438Y-101088094D01*
X137312438Y-101088094D02*
X137264819Y-100992856D01*
X137264819Y-100992856D02*
X137264819Y-100754761D01*
X137264819Y-100754761D02*
X137312438Y-100659523D01*
X137312438Y-100659523D02*
X137360057Y-100611904D01*
X137360057Y-100611904D02*
X137455295Y-100564285D01*
X137455295Y-100564285D02*
X137550533Y-100564285D01*
X137550533Y-100564285D02*
X137693390Y-100611904D01*
X137693390Y-100611904D02*
X138264819Y-101183332D01*
X138264819Y-101183332D02*
X138264819Y-100564285D01*
X122919047Y-150171009D02*
X123061904Y-150218628D01*
X123061904Y-150218628D02*
X123109523Y-150266247D01*
X123109523Y-150266247D02*
X123157142Y-150361485D01*
X123157142Y-150361485D02*
X123157142Y-150504342D01*
X123157142Y-150504342D02*
X123109523Y-150599580D01*
X123109523Y-150599580D02*
X123061904Y-150647200D01*
X123061904Y-150647200D02*
X122966666Y-150694819D01*
X122966666Y-150694819D02*
X122585714Y-150694819D01*
X122585714Y-150694819D02*
X122585714Y-149694819D01*
X122585714Y-149694819D02*
X122919047Y-149694819D01*
X122919047Y-149694819D02*
X123014285Y-149742438D01*
X123014285Y-149742438D02*
X123061904Y-149790057D01*
X123061904Y-149790057D02*
X123109523Y-149885295D01*
X123109523Y-149885295D02*
X123109523Y-149980533D01*
X123109523Y-149980533D02*
X123061904Y-150075771D01*
X123061904Y-150075771D02*
X123014285Y-150123390D01*
X123014285Y-150123390D02*
X122919047Y-150171009D01*
X122919047Y-150171009D02*
X122585714Y-150171009D01*
X123490476Y-149694819D02*
X124157142Y-149694819D01*
X124157142Y-149694819D02*
X123490476Y-150694819D01*
X123490476Y-150694819D02*
X124157142Y-150694819D01*
X125061904Y-150694819D02*
X124490476Y-150694819D01*
X124776190Y-150694819D02*
X124776190Y-149694819D01*
X124776190Y-149694819D02*
X124680952Y-149837676D01*
X124680952Y-149837676D02*
X124585714Y-149932914D01*
X124585714Y-149932914D02*
X124490476Y-149980533D01*
X119609048Y-147773866D02*
X120370953Y-147773866D01*
X119990000Y-148154819D02*
X119990000Y-147392914D01*
X29045180Y-125876666D02*
X28330895Y-125876666D01*
X28330895Y-125876666D02*
X28188038Y-125829047D01*
X28188038Y-125829047D02*
X28092800Y-125733809D01*
X28092800Y-125733809D02*
X28045180Y-125590952D01*
X28045180Y-125590952D02*
X28045180Y-125495714D01*
X29045180Y-126257619D02*
X29045180Y-126876666D01*
X29045180Y-126876666D02*
X28664228Y-126543333D01*
X28664228Y-126543333D02*
X28664228Y-126686190D01*
X28664228Y-126686190D02*
X28616609Y-126781428D01*
X28616609Y-126781428D02*
X28568990Y-126829047D01*
X28568990Y-126829047D02*
X28473752Y-126876666D01*
X28473752Y-126876666D02*
X28235657Y-126876666D01*
X28235657Y-126876666D02*
X28140419Y-126829047D01*
X28140419Y-126829047D02*
X28092800Y-126781428D01*
X28092800Y-126781428D02*
X28045180Y-126686190D01*
X28045180Y-126686190D02*
X28045180Y-126400476D01*
X28045180Y-126400476D02*
X28092800Y-126305238D01*
X28092800Y-126305238D02*
X28140419Y-126257619D01*
X121354819Y-132642857D02*
X120878628Y-132976190D01*
X121354819Y-133214285D02*
X120354819Y-133214285D01*
X120354819Y-133214285D02*
X120354819Y-132833333D01*
X120354819Y-132833333D02*
X120402438Y-132738095D01*
X120402438Y-132738095D02*
X120450057Y-132690476D01*
X120450057Y-132690476D02*
X120545295Y-132642857D01*
X120545295Y-132642857D02*
X120688152Y-132642857D01*
X120688152Y-132642857D02*
X120783390Y-132690476D01*
X120783390Y-132690476D02*
X120831009Y-132738095D01*
X120831009Y-132738095D02*
X120878628Y-132833333D01*
X120878628Y-132833333D02*
X120878628Y-133214285D01*
X121354819Y-131690476D02*
X121354819Y-132261904D01*
X121354819Y-131976190D02*
X120354819Y-131976190D01*
X120354819Y-131976190D02*
X120497676Y-132071428D01*
X120497676Y-132071428D02*
X120592914Y-132166666D01*
X120592914Y-132166666D02*
X120640533Y-132261904D01*
X120354819Y-130785714D02*
X120354819Y-131261904D01*
X120354819Y-131261904D02*
X120831009Y-131309523D01*
X120831009Y-131309523D02*
X120783390Y-131261904D01*
X120783390Y-131261904D02*
X120735771Y-131166666D01*
X120735771Y-131166666D02*
X120735771Y-130928571D01*
X120735771Y-130928571D02*
X120783390Y-130833333D01*
X120783390Y-130833333D02*
X120831009Y-130785714D01*
X120831009Y-130785714D02*
X120926247Y-130738095D01*
X120926247Y-130738095D02*
X121164342Y-130738095D01*
X121164342Y-130738095D02*
X121259580Y-130785714D01*
X121259580Y-130785714D02*
X121307200Y-130833333D01*
X121307200Y-130833333D02*
X121354819Y-130928571D01*
X121354819Y-130928571D02*
X121354819Y-131166666D01*
X121354819Y-131166666D02*
X121307200Y-131261904D01*
X121307200Y-131261904D02*
X121259580Y-131309523D01*
X121934819Y-90206666D02*
X121458628Y-90539999D01*
X121934819Y-90778094D02*
X120934819Y-90778094D01*
X120934819Y-90778094D02*
X120934819Y-90397142D01*
X120934819Y-90397142D02*
X120982438Y-90301904D01*
X120982438Y-90301904D02*
X121030057Y-90254285D01*
X121030057Y-90254285D02*
X121125295Y-90206666D01*
X121125295Y-90206666D02*
X121268152Y-90206666D01*
X121268152Y-90206666D02*
X121363390Y-90254285D01*
X121363390Y-90254285D02*
X121411009Y-90301904D01*
X121411009Y-90301904D02*
X121458628Y-90397142D01*
X121458628Y-90397142D02*
X121458628Y-90778094D01*
X121934819Y-89254285D02*
X121934819Y-89825713D01*
X121934819Y-89539999D02*
X120934819Y-89539999D01*
X120934819Y-89539999D02*
X121077676Y-89635237D01*
X121077676Y-89635237D02*
X121172914Y-89730475D01*
X121172914Y-89730475D02*
X121220533Y-89825713D01*
X42473333Y-100523390D02*
X42140000Y-100047199D01*
X41901905Y-100523390D02*
X41901905Y-99523390D01*
X41901905Y-99523390D02*
X42282857Y-99523390D01*
X42282857Y-99523390D02*
X42378095Y-99571009D01*
X42378095Y-99571009D02*
X42425714Y-99618628D01*
X42425714Y-99618628D02*
X42473333Y-99713866D01*
X42473333Y-99713866D02*
X42473333Y-99856723D01*
X42473333Y-99856723D02*
X42425714Y-99951961D01*
X42425714Y-99951961D02*
X42378095Y-99999580D01*
X42378095Y-99999580D02*
X42282857Y-100047199D01*
X42282857Y-100047199D02*
X41901905Y-100047199D01*
X43378095Y-99523390D02*
X42901905Y-99523390D01*
X42901905Y-99523390D02*
X42854286Y-99999580D01*
X42854286Y-99999580D02*
X42901905Y-99951961D01*
X42901905Y-99951961D02*
X42997143Y-99904342D01*
X42997143Y-99904342D02*
X43235238Y-99904342D01*
X43235238Y-99904342D02*
X43330476Y-99951961D01*
X43330476Y-99951961D02*
X43378095Y-99999580D01*
X43378095Y-99999580D02*
X43425714Y-100094818D01*
X43425714Y-100094818D02*
X43425714Y-100332913D01*
X43425714Y-100332913D02*
X43378095Y-100428151D01*
X43378095Y-100428151D02*
X43330476Y-100475771D01*
X43330476Y-100475771D02*
X43235238Y-100523390D01*
X43235238Y-100523390D02*
X42997143Y-100523390D01*
X42997143Y-100523390D02*
X42901905Y-100475771D01*
X42901905Y-100475771D02*
X42854286Y-100428151D01*
X161759580Y-109616666D02*
X161807200Y-109664285D01*
X161807200Y-109664285D02*
X161854819Y-109807142D01*
X161854819Y-109807142D02*
X161854819Y-109902380D01*
X161854819Y-109902380D02*
X161807200Y-110045237D01*
X161807200Y-110045237D02*
X161711961Y-110140475D01*
X161711961Y-110140475D02*
X161616723Y-110188094D01*
X161616723Y-110188094D02*
X161426247Y-110235713D01*
X161426247Y-110235713D02*
X161283390Y-110235713D01*
X161283390Y-110235713D02*
X161092914Y-110188094D01*
X161092914Y-110188094D02*
X160997676Y-110140475D01*
X160997676Y-110140475D02*
X160902438Y-110045237D01*
X160902438Y-110045237D02*
X160854819Y-109902380D01*
X160854819Y-109902380D02*
X160854819Y-109807142D01*
X160854819Y-109807142D02*
X160902438Y-109664285D01*
X160902438Y-109664285D02*
X160950057Y-109616666D01*
X160950057Y-109235713D02*
X160902438Y-109188094D01*
X160902438Y-109188094D02*
X160854819Y-109092856D01*
X160854819Y-109092856D02*
X160854819Y-108854761D01*
X160854819Y-108854761D02*
X160902438Y-108759523D01*
X160902438Y-108759523D02*
X160950057Y-108711904D01*
X160950057Y-108711904D02*
X161045295Y-108664285D01*
X161045295Y-108664285D02*
X161140533Y-108664285D01*
X161140533Y-108664285D02*
X161283390Y-108711904D01*
X161283390Y-108711904D02*
X161854819Y-109283332D01*
X161854819Y-109283332D02*
X161854819Y-108664285D01*
X29145180Y-143476666D02*
X28430895Y-143476666D01*
X28430895Y-143476666D02*
X28288038Y-143429047D01*
X28288038Y-143429047D02*
X28192800Y-143333809D01*
X28192800Y-143333809D02*
X28145180Y-143190952D01*
X28145180Y-143190952D02*
X28145180Y-143095714D01*
X28811847Y-144381428D02*
X28145180Y-144381428D01*
X29192800Y-144143333D02*
X28478514Y-143905238D01*
X28478514Y-143905238D02*
X28478514Y-144524285D01*
X41997142Y-120117676D02*
X41663809Y-119641485D01*
X41425714Y-120117676D02*
X41425714Y-119117676D01*
X41425714Y-119117676D02*
X41806666Y-119117676D01*
X41806666Y-119117676D02*
X41901904Y-119165295D01*
X41901904Y-119165295D02*
X41949523Y-119212914D01*
X41949523Y-119212914D02*
X41997142Y-119308152D01*
X41997142Y-119308152D02*
X41997142Y-119451009D01*
X41997142Y-119451009D02*
X41949523Y-119546247D01*
X41949523Y-119546247D02*
X41901904Y-119593866D01*
X41901904Y-119593866D02*
X41806666Y-119641485D01*
X41806666Y-119641485D02*
X41425714Y-119641485D01*
X42949523Y-120117676D02*
X42378095Y-120117676D01*
X42663809Y-120117676D02*
X42663809Y-119117676D01*
X42663809Y-119117676D02*
X42568571Y-119260533D01*
X42568571Y-119260533D02*
X42473333Y-119355771D01*
X42473333Y-119355771D02*
X42378095Y-119403390D01*
X43901904Y-120117676D02*
X43330476Y-120117676D01*
X43616190Y-120117676D02*
X43616190Y-119117676D01*
X43616190Y-119117676D02*
X43520952Y-119260533D01*
X43520952Y-119260533D02*
X43425714Y-119355771D01*
X43425714Y-119355771D02*
X43330476Y-119403390D01*
X133212579Y-34456467D02*
X133212579Y-33669065D01*
X133212579Y-33669065D02*
X133475047Y-34231495D01*
X133475047Y-34231495D02*
X133737514Y-33669065D01*
X133737514Y-33669065D02*
X133737514Y-34456467D01*
X134524916Y-34456467D02*
X134074972Y-34456467D01*
X134299944Y-34456467D02*
X134299944Y-33669065D01*
X134299944Y-33669065D02*
X134224953Y-33781551D01*
X134224953Y-33781551D02*
X134149963Y-33856542D01*
X134149963Y-33856542D02*
X134074972Y-33894037D01*
X42473333Y-107054819D02*
X42140000Y-106578628D01*
X41901905Y-107054819D02*
X41901905Y-106054819D01*
X41901905Y-106054819D02*
X42282857Y-106054819D01*
X42282857Y-106054819D02*
X42378095Y-106102438D01*
X42378095Y-106102438D02*
X42425714Y-106150057D01*
X42425714Y-106150057D02*
X42473333Y-106245295D01*
X42473333Y-106245295D02*
X42473333Y-106388152D01*
X42473333Y-106388152D02*
X42425714Y-106483390D01*
X42425714Y-106483390D02*
X42378095Y-106531009D01*
X42378095Y-106531009D02*
X42282857Y-106578628D01*
X42282857Y-106578628D02*
X41901905Y-106578628D01*
X43330476Y-106054819D02*
X43140000Y-106054819D01*
X43140000Y-106054819D02*
X43044762Y-106102438D01*
X43044762Y-106102438D02*
X42997143Y-106150057D01*
X42997143Y-106150057D02*
X42901905Y-106292914D01*
X42901905Y-106292914D02*
X42854286Y-106483390D01*
X42854286Y-106483390D02*
X42854286Y-106864342D01*
X42854286Y-106864342D02*
X42901905Y-106959580D01*
X42901905Y-106959580D02*
X42949524Y-107007200D01*
X42949524Y-107007200D02*
X43044762Y-107054819D01*
X43044762Y-107054819D02*
X43235238Y-107054819D01*
X43235238Y-107054819D02*
X43330476Y-107007200D01*
X43330476Y-107007200D02*
X43378095Y-106959580D01*
X43378095Y-106959580D02*
X43425714Y-106864342D01*
X43425714Y-106864342D02*
X43425714Y-106626247D01*
X43425714Y-106626247D02*
X43378095Y-106531009D01*
X43378095Y-106531009D02*
X43330476Y-106483390D01*
X43330476Y-106483390D02*
X43235238Y-106435771D01*
X43235238Y-106435771D02*
X43044762Y-106435771D01*
X43044762Y-106435771D02*
X42949524Y-106483390D01*
X42949524Y-106483390D02*
X42901905Y-106531009D01*
X42901905Y-106531009D02*
X42854286Y-106626247D01*
X42473333Y-103789105D02*
X42140000Y-103312914D01*
X41901905Y-103789105D02*
X41901905Y-102789105D01*
X41901905Y-102789105D02*
X42282857Y-102789105D01*
X42282857Y-102789105D02*
X42378095Y-102836724D01*
X42378095Y-102836724D02*
X42425714Y-102884343D01*
X42425714Y-102884343D02*
X42473333Y-102979581D01*
X42473333Y-102979581D02*
X42473333Y-103122438D01*
X42473333Y-103122438D02*
X42425714Y-103217676D01*
X42425714Y-103217676D02*
X42378095Y-103265295D01*
X42378095Y-103265295D02*
X42282857Y-103312914D01*
X42282857Y-103312914D02*
X41901905Y-103312914D01*
X42806667Y-102789105D02*
X43473333Y-102789105D01*
X43473333Y-102789105D02*
X43044762Y-103789105D01*
X64244819Y-109091904D02*
X65054342Y-109091904D01*
X65054342Y-109091904D02*
X65149580Y-109044285D01*
X65149580Y-109044285D02*
X65197200Y-108996666D01*
X65197200Y-108996666D02*
X65244819Y-108901428D01*
X65244819Y-108901428D02*
X65244819Y-108710952D01*
X65244819Y-108710952D02*
X65197200Y-108615714D01*
X65197200Y-108615714D02*
X65149580Y-108568095D01*
X65149580Y-108568095D02*
X65054342Y-108520476D01*
X65054342Y-108520476D02*
X64244819Y-108520476D01*
X65244819Y-107520476D02*
X65244819Y-108091904D01*
X65244819Y-107806190D02*
X64244819Y-107806190D01*
X64244819Y-107806190D02*
X64387676Y-107901428D01*
X64387676Y-107901428D02*
X64482914Y-107996666D01*
X64482914Y-107996666D02*
X64530533Y-108091904D01*
X75634880Y-104520000D02*
X75396785Y-104520000D01*
X75492023Y-104281905D02*
X75396785Y-104520000D01*
X75396785Y-104520000D02*
X75492023Y-104758095D01*
X75206309Y-104377143D02*
X75396785Y-104520000D01*
X75396785Y-104520000D02*
X75206309Y-104662857D01*
X74544519Y-104519999D02*
X74782614Y-104519999D01*
X74687376Y-104758094D02*
X74782614Y-104519999D01*
X74782614Y-104519999D02*
X74687376Y-104281904D01*
X74973090Y-104662856D02*
X74782614Y-104519999D01*
X74782614Y-104519999D02*
X74973090Y-104377142D01*
X70497142Y-99524819D02*
X70163809Y-99048628D01*
X69925714Y-99524819D02*
X69925714Y-98524819D01*
X69925714Y-98524819D02*
X70306666Y-98524819D01*
X70306666Y-98524819D02*
X70401904Y-98572438D01*
X70401904Y-98572438D02*
X70449523Y-98620057D01*
X70449523Y-98620057D02*
X70497142Y-98715295D01*
X70497142Y-98715295D02*
X70497142Y-98858152D01*
X70497142Y-98858152D02*
X70449523Y-98953390D01*
X70449523Y-98953390D02*
X70401904Y-99001009D01*
X70401904Y-99001009D02*
X70306666Y-99048628D01*
X70306666Y-99048628D02*
X69925714Y-99048628D01*
X71449523Y-99524819D02*
X70878095Y-99524819D01*
X71163809Y-99524819D02*
X71163809Y-98524819D01*
X71163809Y-98524819D02*
X71068571Y-98667676D01*
X71068571Y-98667676D02*
X70973333Y-98762914D01*
X70973333Y-98762914D02*
X70878095Y-98810533D01*
X72306666Y-98858152D02*
X72306666Y-99524819D01*
X72068571Y-98477200D02*
X71830476Y-99191485D01*
X71830476Y-99191485D02*
X72449523Y-99191485D01*
X161054819Y-99872781D02*
X161054819Y-100348971D01*
X161054819Y-100348971D02*
X160054819Y-100348971D01*
X161007200Y-99587066D02*
X161054819Y-99444209D01*
X161054819Y-99444209D02*
X161054819Y-99206114D01*
X161054819Y-99206114D02*
X161007200Y-99110876D01*
X161007200Y-99110876D02*
X160959580Y-99063257D01*
X160959580Y-99063257D02*
X160864342Y-99015638D01*
X160864342Y-99015638D02*
X160769104Y-99015638D01*
X160769104Y-99015638D02*
X160673866Y-99063257D01*
X160673866Y-99063257D02*
X160626247Y-99110876D01*
X160626247Y-99110876D02*
X160578628Y-99206114D01*
X160578628Y-99206114D02*
X160531009Y-99396590D01*
X160531009Y-99396590D02*
X160483390Y-99491828D01*
X160483390Y-99491828D02*
X160435771Y-99539447D01*
X160435771Y-99539447D02*
X160340533Y-99587066D01*
X160340533Y-99587066D02*
X160245295Y-99587066D01*
X160245295Y-99587066D02*
X160150057Y-99539447D01*
X160150057Y-99539447D02*
X160102438Y-99491828D01*
X160102438Y-99491828D02*
X160054819Y-99396590D01*
X160054819Y-99396590D02*
X160054819Y-99158495D01*
X160054819Y-99158495D02*
X160102438Y-99015638D01*
X161054819Y-98063257D02*
X161054819Y-98634685D01*
X161054819Y-98348971D02*
X160054819Y-98348971D01*
X160054819Y-98348971D02*
X160197676Y-98444209D01*
X160197676Y-98444209D02*
X160292914Y-98539447D01*
X160292914Y-98539447D02*
X160340533Y-98634685D01*
X41997142Y-116851962D02*
X41663809Y-116375771D01*
X41425714Y-116851962D02*
X41425714Y-115851962D01*
X41425714Y-115851962D02*
X41806666Y-115851962D01*
X41806666Y-115851962D02*
X41901904Y-115899581D01*
X41901904Y-115899581D02*
X41949523Y-115947200D01*
X41949523Y-115947200D02*
X41997142Y-116042438D01*
X41997142Y-116042438D02*
X41997142Y-116185295D01*
X41997142Y-116185295D02*
X41949523Y-116280533D01*
X41949523Y-116280533D02*
X41901904Y-116328152D01*
X41901904Y-116328152D02*
X41806666Y-116375771D01*
X41806666Y-116375771D02*
X41425714Y-116375771D01*
X42949523Y-116851962D02*
X42378095Y-116851962D01*
X42663809Y-116851962D02*
X42663809Y-115851962D01*
X42663809Y-115851962D02*
X42568571Y-115994819D01*
X42568571Y-115994819D02*
X42473333Y-116090057D01*
X42473333Y-116090057D02*
X42378095Y-116137676D01*
X43568571Y-115851962D02*
X43663809Y-115851962D01*
X43663809Y-115851962D02*
X43759047Y-115899581D01*
X43759047Y-115899581D02*
X43806666Y-115947200D01*
X43806666Y-115947200D02*
X43854285Y-116042438D01*
X43854285Y-116042438D02*
X43901904Y-116232914D01*
X43901904Y-116232914D02*
X43901904Y-116471009D01*
X43901904Y-116471009D02*
X43854285Y-116661485D01*
X43854285Y-116661485D02*
X43806666Y-116756723D01*
X43806666Y-116756723D02*
X43759047Y-116804343D01*
X43759047Y-116804343D02*
X43663809Y-116851962D01*
X43663809Y-116851962D02*
X43568571Y-116851962D01*
X43568571Y-116851962D02*
X43473333Y-116804343D01*
X43473333Y-116804343D02*
X43425714Y-116756723D01*
X43425714Y-116756723D02*
X43378095Y-116661485D01*
X43378095Y-116661485D02*
X43330476Y-116471009D01*
X43330476Y-116471009D02*
X43330476Y-116232914D01*
X43330476Y-116232914D02*
X43378095Y-116042438D01*
X43378095Y-116042438D02*
X43425714Y-115947200D01*
X43425714Y-115947200D02*
X43473333Y-115899581D01*
X43473333Y-115899581D02*
X43568571Y-115851962D01*
X42473333Y-113586247D02*
X42140000Y-113110056D01*
X41901905Y-113586247D02*
X41901905Y-112586247D01*
X41901905Y-112586247D02*
X42282857Y-112586247D01*
X42282857Y-112586247D02*
X42378095Y-112633866D01*
X42378095Y-112633866D02*
X42425714Y-112681485D01*
X42425714Y-112681485D02*
X42473333Y-112776723D01*
X42473333Y-112776723D02*
X42473333Y-112919580D01*
X42473333Y-112919580D02*
X42425714Y-113014818D01*
X42425714Y-113014818D02*
X42378095Y-113062437D01*
X42378095Y-113062437D02*
X42282857Y-113110056D01*
X42282857Y-113110056D02*
X41901905Y-113110056D01*
X42949524Y-113586247D02*
X43140000Y-113586247D01*
X43140000Y-113586247D02*
X43235238Y-113538628D01*
X43235238Y-113538628D02*
X43282857Y-113491008D01*
X43282857Y-113491008D02*
X43378095Y-113348151D01*
X43378095Y-113348151D02*
X43425714Y-113157675D01*
X43425714Y-113157675D02*
X43425714Y-112776723D01*
X43425714Y-112776723D02*
X43378095Y-112681485D01*
X43378095Y-112681485D02*
X43330476Y-112633866D01*
X43330476Y-112633866D02*
X43235238Y-112586247D01*
X43235238Y-112586247D02*
X43044762Y-112586247D01*
X43044762Y-112586247D02*
X42949524Y-112633866D01*
X42949524Y-112633866D02*
X42901905Y-112681485D01*
X42901905Y-112681485D02*
X42854286Y-112776723D01*
X42854286Y-112776723D02*
X42854286Y-113014818D01*
X42854286Y-113014818D02*
X42901905Y-113110056D01*
X42901905Y-113110056D02*
X42949524Y-113157675D01*
X42949524Y-113157675D02*
X43044762Y-113205294D01*
X43044762Y-113205294D02*
X43235238Y-113205294D01*
X43235238Y-113205294D02*
X43330476Y-113157675D01*
X43330476Y-113157675D02*
X43378095Y-113110056D01*
X43378095Y-113110056D02*
X43425714Y-113014818D01*
X60496742Y-155454819D02*
X60496742Y-156169104D01*
X60496742Y-156169104D02*
X60449123Y-156311961D01*
X60449123Y-156311961D02*
X60353885Y-156407200D01*
X60353885Y-156407200D02*
X60211028Y-156454819D01*
X60211028Y-156454819D02*
X60115790Y-156454819D01*
X60925314Y-155550057D02*
X60972933Y-155502438D01*
X60972933Y-155502438D02*
X61068171Y-155454819D01*
X61068171Y-155454819D02*
X61306266Y-155454819D01*
X61306266Y-155454819D02*
X61401504Y-155502438D01*
X61401504Y-155502438D02*
X61449123Y-155550057D01*
X61449123Y-155550057D02*
X61496742Y-155645295D01*
X61496742Y-155645295D02*
X61496742Y-155740533D01*
X61496742Y-155740533D02*
X61449123Y-155883390D01*
X61449123Y-155883390D02*
X60877695Y-156454819D01*
X60877695Y-156454819D02*
X61496742Y-156454819D01*
X141934819Y-90526666D02*
X141458628Y-90859999D01*
X141934819Y-91098094D02*
X140934819Y-91098094D01*
X140934819Y-91098094D02*
X140934819Y-90717142D01*
X140934819Y-90717142D02*
X140982438Y-90621904D01*
X140982438Y-90621904D02*
X141030057Y-90574285D01*
X141030057Y-90574285D02*
X141125295Y-90526666D01*
X141125295Y-90526666D02*
X141268152Y-90526666D01*
X141268152Y-90526666D02*
X141363390Y-90574285D01*
X141363390Y-90574285D02*
X141411009Y-90621904D01*
X141411009Y-90621904D02*
X141458628Y-90717142D01*
X141458628Y-90717142D02*
X141458628Y-91098094D01*
X140934819Y-90193332D02*
X140934819Y-89574285D01*
X140934819Y-89574285D02*
X141315771Y-89907618D01*
X141315771Y-89907618D02*
X141315771Y-89764761D01*
X141315771Y-89764761D02*
X141363390Y-89669523D01*
X141363390Y-89669523D02*
X141411009Y-89621904D01*
X141411009Y-89621904D02*
X141506247Y-89574285D01*
X141506247Y-89574285D02*
X141744342Y-89574285D01*
X141744342Y-89574285D02*
X141839580Y-89621904D01*
X141839580Y-89621904D02*
X141887200Y-89669523D01*
X141887200Y-89669523D02*
X141934819Y-89764761D01*
X141934819Y-89764761D02*
X141934819Y-90050475D01*
X141934819Y-90050475D02*
X141887200Y-90145713D01*
X141887200Y-90145713D02*
X141839580Y-90193332D01*
X148264819Y-102168094D02*
X147264819Y-102168094D01*
X147264819Y-102168094D02*
X147264819Y-101929999D01*
X147264819Y-101929999D02*
X147312438Y-101787142D01*
X147312438Y-101787142D02*
X147407676Y-101691904D01*
X147407676Y-101691904D02*
X147502914Y-101644285D01*
X147502914Y-101644285D02*
X147693390Y-101596666D01*
X147693390Y-101596666D02*
X147836247Y-101596666D01*
X147836247Y-101596666D02*
X148026723Y-101644285D01*
X148026723Y-101644285D02*
X148121961Y-101691904D01*
X148121961Y-101691904D02*
X148217200Y-101787142D01*
X148217200Y-101787142D02*
X148264819Y-101929999D01*
X148264819Y-101929999D02*
X148264819Y-102168094D01*
X147264819Y-101263332D02*
X147264819Y-100644285D01*
X147264819Y-100644285D02*
X147645771Y-100977618D01*
X147645771Y-100977618D02*
X147645771Y-100834761D01*
X147645771Y-100834761D02*
X147693390Y-100739523D01*
X147693390Y-100739523D02*
X147741009Y-100691904D01*
X147741009Y-100691904D02*
X147836247Y-100644285D01*
X147836247Y-100644285D02*
X148074342Y-100644285D01*
X148074342Y-100644285D02*
X148169580Y-100691904D01*
X148169580Y-100691904D02*
X148217200Y-100739523D01*
X148217200Y-100739523D02*
X148264819Y-100834761D01*
X148264819Y-100834761D02*
X148264819Y-101120475D01*
X148264819Y-101120475D02*
X148217200Y-101215713D01*
X148217200Y-101215713D02*
X148169580Y-101263332D01*
X117957142Y-117024819D02*
X117623809Y-116548628D01*
X117385714Y-117024819D02*
X117385714Y-116024819D01*
X117385714Y-116024819D02*
X117766666Y-116024819D01*
X117766666Y-116024819D02*
X117861904Y-116072438D01*
X117861904Y-116072438D02*
X117909523Y-116120057D01*
X117909523Y-116120057D02*
X117957142Y-116215295D01*
X117957142Y-116215295D02*
X117957142Y-116358152D01*
X117957142Y-116358152D02*
X117909523Y-116453390D01*
X117909523Y-116453390D02*
X117861904Y-116501009D01*
X117861904Y-116501009D02*
X117766666Y-116548628D01*
X117766666Y-116548628D02*
X117385714Y-116548628D01*
X118909523Y-117024819D02*
X118338095Y-117024819D01*
X118623809Y-117024819D02*
X118623809Y-116024819D01*
X118623809Y-116024819D02*
X118528571Y-116167676D01*
X118528571Y-116167676D02*
X118433333Y-116262914D01*
X118433333Y-116262914D02*
X118338095Y-116310533D01*
X119242857Y-116024819D02*
X119861904Y-116024819D01*
X119861904Y-116024819D02*
X119528571Y-116405771D01*
X119528571Y-116405771D02*
X119671428Y-116405771D01*
X119671428Y-116405771D02*
X119766666Y-116453390D01*
X119766666Y-116453390D02*
X119814285Y-116501009D01*
X119814285Y-116501009D02*
X119861904Y-116596247D01*
X119861904Y-116596247D02*
X119861904Y-116834342D01*
X119861904Y-116834342D02*
X119814285Y-116929580D01*
X119814285Y-116929580D02*
X119766666Y-116977200D01*
X119766666Y-116977200D02*
X119671428Y-117024819D01*
X119671428Y-117024819D02*
X119385714Y-117024819D01*
X119385714Y-117024819D02*
X119290476Y-116977200D01*
X119290476Y-116977200D02*
X119242857Y-116929580D01*
X70050954Y-154877201D02*
X70003335Y-154924821D01*
X70003335Y-154924821D02*
X69860478Y-154972440D01*
X69860478Y-154972440D02*
X69765240Y-154972440D01*
X69765240Y-154972440D02*
X69622383Y-154924821D01*
X69622383Y-154924821D02*
X69527145Y-154829582D01*
X69527145Y-154829582D02*
X69479526Y-154734344D01*
X69479526Y-154734344D02*
X69431907Y-154543868D01*
X69431907Y-154543868D02*
X69431907Y-154401011D01*
X69431907Y-154401011D02*
X69479526Y-154210535D01*
X69479526Y-154210535D02*
X69527145Y-154115297D01*
X69527145Y-154115297D02*
X69622383Y-154020059D01*
X69622383Y-154020059D02*
X69765240Y-153972440D01*
X69765240Y-153972440D02*
X69860478Y-153972440D01*
X69860478Y-153972440D02*
X70003335Y-154020059D01*
X70003335Y-154020059D02*
X70050954Y-154067678D01*
X71003335Y-154972440D02*
X70431907Y-154972440D01*
X70717621Y-154972440D02*
X70717621Y-153972440D01*
X70717621Y-153972440D02*
X70622383Y-154115297D01*
X70622383Y-154115297D02*
X70527145Y-154210535D01*
X70527145Y-154210535D02*
X70431907Y-154258154D01*
X42473333Y-97257676D02*
X42140000Y-96781485D01*
X41901905Y-97257676D02*
X41901905Y-96257676D01*
X41901905Y-96257676D02*
X42282857Y-96257676D01*
X42282857Y-96257676D02*
X42378095Y-96305295D01*
X42378095Y-96305295D02*
X42425714Y-96352914D01*
X42425714Y-96352914D02*
X42473333Y-96448152D01*
X42473333Y-96448152D02*
X42473333Y-96591009D01*
X42473333Y-96591009D02*
X42425714Y-96686247D01*
X42425714Y-96686247D02*
X42378095Y-96733866D01*
X42378095Y-96733866D02*
X42282857Y-96781485D01*
X42282857Y-96781485D02*
X41901905Y-96781485D01*
X43330476Y-96591009D02*
X43330476Y-97257676D01*
X43092381Y-96210057D02*
X42854286Y-96924342D01*
X42854286Y-96924342D02*
X43473333Y-96924342D01*
X126854819Y-130042857D02*
X126378628Y-130376190D01*
X126854819Y-130614285D02*
X125854819Y-130614285D01*
X125854819Y-130614285D02*
X125854819Y-130233333D01*
X125854819Y-130233333D02*
X125902438Y-130138095D01*
X125902438Y-130138095D02*
X125950057Y-130090476D01*
X125950057Y-130090476D02*
X126045295Y-130042857D01*
X126045295Y-130042857D02*
X126188152Y-130042857D01*
X126188152Y-130042857D02*
X126283390Y-130090476D01*
X126283390Y-130090476D02*
X126331009Y-130138095D01*
X126331009Y-130138095D02*
X126378628Y-130233333D01*
X126378628Y-130233333D02*
X126378628Y-130614285D01*
X126854819Y-129090476D02*
X126854819Y-129661904D01*
X126854819Y-129376190D02*
X125854819Y-129376190D01*
X125854819Y-129376190D02*
X125997676Y-129471428D01*
X125997676Y-129471428D02*
X126092914Y-129566666D01*
X126092914Y-129566666D02*
X126140533Y-129661904D01*
X125854819Y-128233333D02*
X125854819Y-128423809D01*
X125854819Y-128423809D02*
X125902438Y-128519047D01*
X125902438Y-128519047D02*
X125950057Y-128566666D01*
X125950057Y-128566666D02*
X126092914Y-128661904D01*
X126092914Y-128661904D02*
X126283390Y-128709523D01*
X126283390Y-128709523D02*
X126664342Y-128709523D01*
X126664342Y-128709523D02*
X126759580Y-128661904D01*
X126759580Y-128661904D02*
X126807200Y-128614285D01*
X126807200Y-128614285D02*
X126854819Y-128519047D01*
X126854819Y-128519047D02*
X126854819Y-128328571D01*
X126854819Y-128328571D02*
X126807200Y-128233333D01*
X126807200Y-128233333D02*
X126759580Y-128185714D01*
X126759580Y-128185714D02*
X126664342Y-128138095D01*
X126664342Y-128138095D02*
X126426247Y-128138095D01*
X126426247Y-128138095D02*
X126331009Y-128185714D01*
X126331009Y-128185714D02*
X126283390Y-128233333D01*
X126283390Y-128233333D02*
X126235771Y-128328571D01*
X126235771Y-128328571D02*
X126235771Y-128519047D01*
X126235771Y-128519047D02*
X126283390Y-128614285D01*
X126283390Y-128614285D02*
X126331009Y-128661904D01*
X126331009Y-128661904D02*
X126426247Y-128709523D01*
X155055095Y-135054819D02*
X155055095Y-135864342D01*
X155055095Y-135864342D02*
X155102714Y-135959580D01*
X155102714Y-135959580D02*
X155150333Y-136007200D01*
X155150333Y-136007200D02*
X155245571Y-136054819D01*
X155245571Y-136054819D02*
X155436047Y-136054819D01*
X155436047Y-136054819D02*
X155531285Y-136007200D01*
X155531285Y-136007200D02*
X155578904Y-135959580D01*
X155578904Y-135959580D02*
X155626523Y-135864342D01*
X155626523Y-135864342D02*
X155626523Y-135054819D01*
X156055095Y-135150057D02*
X156102714Y-135102438D01*
X156102714Y-135102438D02*
X156197952Y-135054819D01*
X156197952Y-135054819D02*
X156436047Y-135054819D01*
X156436047Y-135054819D02*
X156531285Y-135102438D01*
X156531285Y-135102438D02*
X156578904Y-135150057D01*
X156578904Y-135150057D02*
X156626523Y-135245295D01*
X156626523Y-135245295D02*
X156626523Y-135340533D01*
X156626523Y-135340533D02*
X156578904Y-135483390D01*
X156578904Y-135483390D02*
X156007476Y-136054819D01*
X156007476Y-136054819D02*
X156626523Y-136054819D01*
%TO.C,U4*%
D10*
X101830000Y-89800000D02*
X37510000Y-89800000D01*
X37510000Y-26800000D01*
X101830000Y-26800000D01*
X101830000Y-89800000D01*
X94670000Y-26800000D02*
X44670000Y-26800000D01*
X44670000Y-22020000D01*
X94670000Y-22020000D01*
X94670000Y-26800000D01*
%TO.C,U3*%
D12*
X108900000Y-110364885D02*
X81100000Y-110364885D01*
X81100000Y-159356187D01*
X108900000Y-159356187D01*
X108900000Y-110364885D01*
D10*
X98810000Y-155320000D02*
X91190000Y-155320000D01*
X91190000Y-160400000D01*
X98810000Y-160400000D01*
X98810000Y-155320000D01*
D13*
%TO.C,J5*%
X41094700Y-157472999D02*
X41094700Y-164229399D01*
X41094700Y-164229399D02*
X51915100Y-164229399D01*
X51915100Y-157472999D02*
X41094700Y-157472999D01*
X51915100Y-164229399D02*
X51915100Y-157472999D01*
D14*
X39697700Y-160800000D02*
G75*
G02*
X38935700Y-160800000I-381000J0D01*
G01*
X38935700Y-160800000D02*
G75*
G02*
X39697700Y-160800000I381000J0D01*
G01*
D15*
%TO.C,R8*%
X38600000Y-109865714D02*
X39370000Y-109865714D01*
X46680000Y-109865714D02*
X45910000Y-109865714D01*
X45910000Y-111235714D02*
X39370000Y-111235714D01*
X39370000Y-108495714D01*
X45910000Y-108495714D01*
X45910000Y-111235714D01*
%TO.C,R12*%
X114560000Y-121780000D02*
X115330000Y-121780000D01*
X122640000Y-121780000D02*
X121870000Y-121780000D01*
X121870000Y-123150000D02*
X115330000Y-123150000D01*
X115330000Y-120410000D01*
X121870000Y-120410000D01*
X121870000Y-123150000D01*
%TO.C,D1*%
X125395000Y-98790000D02*
X122305000Y-98790000D01*
X123850000Y-104340000D02*
G75*
G02*
X122305170Y-98790000I0J2990000D01*
G01*
X125394830Y-98790000D02*
G75*
G02*
X123850000Y-104340000I-1544830J-2560000D01*
G01*
X126350000Y-101350000D02*
G75*
G02*
X121350000Y-101350000I-2500000J0D01*
G01*
X121350000Y-101350000D02*
G75*
G02*
X126350000Y-101350000I2500000J0D01*
G01*
%TO.C,R2*%
X133850000Y-86060000D02*
X133850000Y-86830000D01*
X133850000Y-94140000D02*
X133850000Y-93370000D01*
X132480000Y-93370000D02*
X135220000Y-93370000D01*
X135220000Y-86830000D01*
X132480000Y-86830000D01*
X132480000Y-93370000D01*
%TO.C,D2*%
X135395000Y-98790000D02*
X132305000Y-98790000D01*
X133850000Y-104340000D02*
G75*
G02*
X132305170Y-98790000I0J2990000D01*
G01*
X135394830Y-98790000D02*
G75*
G02*
X133850000Y-104340000I-1544830J-2560000D01*
G01*
X136350000Y-101350000D02*
G75*
G02*
X131350000Y-101350000I-2500000J0D01*
G01*
X131350000Y-101350000D02*
G75*
G02*
X136350000Y-101350000I2500000J0D01*
G01*
%TO.C,BZ1*%
X129900000Y-150240000D02*
G75*
G02*
X117700000Y-150240000I-6100000J0D01*
G01*
X117700000Y-150240000D02*
G75*
G02*
X129900000Y-150240000I6100000J0D01*
G01*
D13*
%TO.C,J3*%
X20570601Y-120799800D02*
X20570601Y-131620200D01*
X20570601Y-131620200D02*
X27327001Y-131620200D01*
X27327001Y-120799800D02*
X20570601Y-120799800D01*
X27327001Y-131620200D02*
X27327001Y-120799800D01*
D14*
X24381000Y-119021800D02*
G75*
G02*
X23619000Y-119021800I-381000J0D01*
G01*
X23619000Y-119021800D02*
G75*
G02*
X24381000Y-119021800I381000J0D01*
G01*
D15*
%TO.C,R15*%
X120900000Y-127960000D02*
X120900000Y-128730000D01*
X120900000Y-136040000D02*
X120900000Y-135270000D01*
X119530000Y-135270000D02*
X122270000Y-135270000D01*
X122270000Y-128730000D01*
X119530000Y-128730000D01*
X119530000Y-135270000D01*
%TO.C,R1*%
X123850000Y-86000000D02*
X123850000Y-86770000D01*
X123850000Y-94080000D02*
X123850000Y-93310000D01*
X122480000Y-93310000D02*
X125220000Y-93310000D01*
X125220000Y-86770000D01*
X122480000Y-86770000D01*
X122480000Y-93310000D01*
%TO.C,R5*%
X38600000Y-100068571D02*
X39370000Y-100068571D01*
X46680000Y-100068571D02*
X45910000Y-100068571D01*
X45910000Y-101438571D02*
X39370000Y-101438571D01*
X39370000Y-98698571D01*
X45910000Y-98698571D01*
X45910000Y-101438571D01*
%TO.C,C2*%
X164760000Y-109690000D02*
X162579000Y-109690000D01*
X164760000Y-109730000D02*
X162582000Y-109730000D01*
X164760000Y-109770000D02*
X162586000Y-109770000D01*
X164760000Y-109810000D02*
X162590000Y-109810000D01*
X164760000Y-109850000D02*
X162595000Y-109850000D01*
X164760000Y-109890000D02*
X162600000Y-109890000D01*
X164760000Y-109930000D02*
X162605000Y-109930000D01*
X164760000Y-109970000D02*
X162612000Y-109970000D01*
X164760000Y-110010000D02*
X162618000Y-110010000D01*
X164760000Y-110050000D02*
X162626000Y-110050000D01*
X164760000Y-110090000D02*
X162633000Y-110090000D01*
X164760000Y-110130000D02*
X162641000Y-110130000D01*
X164760000Y-110170000D02*
X162650000Y-110170000D01*
X164760000Y-110210000D02*
X162660000Y-110210000D01*
X164760000Y-110250000D02*
X162669000Y-110250000D01*
X164760000Y-110290000D02*
X162680000Y-110290000D01*
X164760000Y-110330000D02*
X162691000Y-110330000D01*
X164760000Y-110370000D02*
X162702000Y-110370000D01*
X164760000Y-110410000D02*
X162714000Y-110410000D01*
X164760000Y-110450000D02*
X162727000Y-110450000D01*
X164760000Y-110490000D02*
X162740000Y-110490000D01*
X164760000Y-110530000D02*
X162753000Y-110530000D01*
X164760000Y-110570000D02*
X162768000Y-110570000D01*
X164760000Y-110610000D02*
X162783000Y-110610000D01*
X164760000Y-110650000D02*
X162798000Y-110650000D01*
X164760000Y-110690000D02*
X162814000Y-110690000D01*
X164760000Y-110730000D02*
X162831000Y-110730000D01*
X164760000Y-110770000D02*
X162848000Y-110770000D01*
X164760000Y-110810000D02*
X162866000Y-110810000D01*
X164760000Y-110850000D02*
X162885000Y-110850000D01*
X164760000Y-110890000D02*
X162904000Y-110890000D01*
X164760000Y-110930000D02*
X162924000Y-110930000D01*
X164760000Y-110970000D02*
X162945000Y-110970000D01*
X164760000Y-111010000D02*
X162966000Y-111010000D01*
X164760000Y-111050000D02*
X162988000Y-111050000D01*
X164760000Y-111090000D02*
X163011000Y-111090000D01*
X164760000Y-111130000D02*
X163035000Y-111130000D01*
X164760000Y-111170000D02*
X163059000Y-111170000D01*
X164760000Y-111210000D02*
X163084000Y-111210000D01*
X164760000Y-111250000D02*
X163110000Y-111250000D01*
X164760000Y-111290000D02*
X163137000Y-111290000D01*
X164760000Y-111330000D02*
X163164000Y-111330000D01*
X164760000Y-111370000D02*
X163193000Y-111370000D01*
X164760000Y-111410000D02*
X163223000Y-111410000D01*
X164760000Y-111450000D02*
X163253000Y-111450000D01*
X164760000Y-111490000D02*
X163284000Y-111490000D01*
X164760000Y-111530000D02*
X163317000Y-111530000D01*
X164760000Y-111570000D02*
X163350000Y-111570000D01*
X164760000Y-111610000D02*
X163385000Y-111610000D01*
X164760000Y-111650000D02*
X163421000Y-111650000D01*
X164760000Y-111690000D02*
X163458000Y-111690000D01*
X164760000Y-111730000D02*
X163496000Y-111730000D01*
X166202000Y-112690000D02*
X165398000Y-112690000D01*
X166433000Y-112650000D02*
X165167000Y-112650000D01*
X166601000Y-112610000D02*
X164999000Y-112610000D01*
X166739000Y-112570000D02*
X164861000Y-112570000D01*
X166858000Y-112530000D02*
X164742000Y-112530000D01*
X166965000Y-112490000D02*
X164635000Y-112490000D01*
X167061000Y-112450000D02*
X164539000Y-112450000D01*
X167150000Y-112410000D02*
X164450000Y-112410000D01*
X167232000Y-112370000D02*
X164368000Y-112370000D01*
X167309000Y-112330000D02*
X164291000Y-112330000D01*
X167381000Y-112290000D02*
X164219000Y-112290000D01*
X167449000Y-112250000D02*
X164151000Y-112250000D01*
X167514000Y-112210000D02*
X164086000Y-112210000D01*
X167575000Y-112170000D02*
X164025000Y-112170000D01*
X167634000Y-112130000D02*
X163966000Y-112130000D01*
X167639000Y-105949759D02*
X167639000Y-106579759D01*
X167690000Y-112090000D02*
X163910000Y-112090000D01*
X167743000Y-112050000D02*
X163857000Y-112050000D01*
X167795000Y-112010000D02*
X163805000Y-112010000D01*
X167844000Y-111970000D02*
X163756000Y-111970000D01*
X167891000Y-111930000D02*
X163709000Y-111930000D01*
X167937000Y-111890000D02*
X163663000Y-111890000D01*
X167954000Y-106264759D02*
X167324000Y-106264759D01*
X167981000Y-111850000D02*
X163619000Y-111850000D01*
X168023000Y-111810000D02*
X163577000Y-111810000D01*
X168064000Y-111770000D02*
X163536000Y-111770000D01*
X168104000Y-111730000D02*
X166840000Y-111730000D01*
X168142000Y-111690000D02*
X166840000Y-111690000D01*
X168179000Y-111650000D02*
X166840000Y-111650000D01*
X168215000Y-111610000D02*
X166840000Y-111610000D01*
X168250000Y-111570000D02*
X166840000Y-111570000D01*
X168283000Y-111530000D02*
X166840000Y-111530000D01*
X168316000Y-111490000D02*
X166840000Y-111490000D01*
X168347000Y-111450000D02*
X166840000Y-111450000D01*
X168377000Y-111410000D02*
X166840000Y-111410000D01*
X168407000Y-111370000D02*
X166840000Y-111370000D01*
X168436000Y-111330000D02*
X166840000Y-111330000D01*
X168463000Y-111290000D02*
X166840000Y-111290000D01*
X168490000Y-111250000D02*
X166840000Y-111250000D01*
X168516000Y-111210000D02*
X166840000Y-111210000D01*
X168541000Y-111170000D02*
X166840000Y-111170000D01*
X168565000Y-111130000D02*
X166840000Y-111130000D01*
X168589000Y-111090000D02*
X166840000Y-111090000D01*
X168612000Y-111050000D02*
X166840000Y-111050000D01*
X168634000Y-111010000D02*
X166840000Y-111010000D01*
X168655000Y-110970000D02*
X166840000Y-110970000D01*
X168676000Y-110930000D02*
X166840000Y-110930000D01*
X168696000Y-110890000D02*
X166840000Y-110890000D01*
X168715000Y-110850000D02*
X166840000Y-110850000D01*
X168734000Y-110810000D02*
X166840000Y-110810000D01*
X168752000Y-110770000D02*
X166840000Y-110770000D01*
X168769000Y-110730000D02*
X166840000Y-110730000D01*
X168786000Y-110690000D02*
X166840000Y-110690000D01*
X168802000Y-110650000D02*
X166840000Y-110650000D01*
X168817000Y-110610000D02*
X166840000Y-110610000D01*
X168832000Y-110570000D02*
X166840000Y-110570000D01*
X168847000Y-110530000D02*
X166840000Y-110530000D01*
X168860000Y-110490000D02*
X166840000Y-110490000D01*
X168873000Y-110450000D02*
X166840000Y-110450000D01*
X168886000Y-110410000D02*
X166840000Y-110410000D01*
X168898000Y-110370000D02*
X166840000Y-110370000D01*
X168909000Y-110330000D02*
X166840000Y-110330000D01*
X168920000Y-110290000D02*
X166840000Y-110290000D01*
X168931000Y-110250000D02*
X166840000Y-110250000D01*
X168940000Y-110210000D02*
X166840000Y-110210000D01*
X168950000Y-110170000D02*
X166840000Y-110170000D01*
X168959000Y-110130000D02*
X166840000Y-110130000D01*
X168967000Y-110090000D02*
X166840000Y-110090000D01*
X168974000Y-110050000D02*
X166840000Y-110050000D01*
X168982000Y-110010000D02*
X166840000Y-110010000D01*
X168988000Y-109970000D02*
X166840000Y-109970000D01*
X168995000Y-109930000D02*
X166840000Y-109930000D01*
X169000000Y-109890000D02*
X166840000Y-109890000D01*
X169005000Y-109850000D02*
X166840000Y-109850000D01*
X169010000Y-109810000D02*
X166840000Y-109810000D01*
X169014000Y-109770000D02*
X166840000Y-109770000D01*
X169018000Y-109730000D02*
X166840000Y-109730000D01*
X169021000Y-109690000D02*
X166840000Y-109690000D01*
X169024000Y-109650000D02*
X162576000Y-109650000D01*
X169026000Y-109610000D02*
X162574000Y-109610000D01*
X169028000Y-109570000D02*
X162572000Y-109570000D01*
X169029000Y-109530000D02*
X162571000Y-109530000D01*
X169030000Y-109450000D02*
X162570000Y-109450000D01*
X169030000Y-109490000D02*
X162570000Y-109490000D01*
X169070000Y-109450000D02*
G75*
G02*
X162530000Y-109450000I-3270000J0D01*
G01*
X162530000Y-109450000D02*
G75*
G02*
X169070000Y-109450000I3270000J0D01*
G01*
D13*
%TO.C,J4*%
X20570601Y-138399800D02*
X20570601Y-149220200D01*
X20570601Y-149220200D02*
X27327001Y-149220200D01*
X27327001Y-138399800D02*
X20570601Y-138399800D01*
X27327001Y-149220200D02*
X27327001Y-138399800D01*
D14*
X24381000Y-136621800D02*
G75*
G02*
X23619000Y-136621800I-381000J0D01*
G01*
X23619000Y-136621800D02*
G75*
G02*
X24381000Y-136621800I381000J0D01*
G01*
D15*
%TO.C,R11*%
X38600000Y-119662857D02*
X39370000Y-119662857D01*
X46680000Y-119662857D02*
X45910000Y-119662857D01*
X45910000Y-121032857D02*
X39370000Y-121032857D01*
X39370000Y-118292857D01*
X45910000Y-118292857D01*
X45910000Y-121032857D01*
D16*
%TO.C,M1*%
X123664600Y-23144600D02*
X144035400Y-23144600D01*
X123664600Y-25735400D02*
X123664600Y-23144600D01*
X144035400Y-23144600D02*
X144035400Y-25735400D01*
X144035400Y-25735400D02*
X123664600Y-25735400D01*
D15*
%TO.C,R6*%
X38600000Y-103334286D02*
X39370000Y-103334286D01*
X46680000Y-103334286D02*
X45910000Y-103334286D01*
X45910000Y-104704286D02*
X39370000Y-104704286D01*
X39370000Y-101964286D01*
X45910000Y-101964286D01*
X45910000Y-104704286D01*
%TO.C,R7*%
X38600000Y-106600000D02*
X39370000Y-106600000D01*
X46680000Y-106600000D02*
X45910000Y-106600000D01*
X45910000Y-107970000D02*
X39370000Y-107970000D01*
X39370000Y-105230000D01*
X45910000Y-105230000D01*
X45910000Y-107970000D01*
D13*
%TO.C,U1*%
X54947500Y-105028000D02*
X54947500Y-111632000D01*
X56738569Y-111632000D02*
X57601431Y-111632000D01*
X57601431Y-105028000D02*
X56738569Y-105028000D01*
X59278569Y-111632000D02*
X60141431Y-111632000D01*
X60141431Y-105028000D02*
X59278569Y-105028000D01*
X61818569Y-111632000D02*
X62681431Y-111632000D01*
X62681431Y-105028000D02*
X61818569Y-105028000D01*
X64358569Y-111632000D02*
X65221431Y-111632000D01*
X65221431Y-105028000D02*
X64358569Y-105028000D01*
X66898569Y-111632000D02*
X67761431Y-111632000D01*
X67761431Y-105028000D02*
X66898569Y-105028000D01*
X69438569Y-111632000D02*
X70301431Y-111632000D01*
X70301431Y-105028000D02*
X69438569Y-105028000D01*
X71978569Y-111632000D02*
X72841431Y-111632000D01*
X72699560Y-105028000D02*
X71978569Y-105028000D01*
X74632500Y-111632000D02*
X74632500Y-105301165D01*
X74632500Y-108634800D02*
G75*
G02*
X74632500Y-108025200I0J304800D01*
G01*
D15*
%TO.C,R14*%
X67100000Y-96700000D02*
X67870000Y-96700000D01*
X75180000Y-96700000D02*
X74410000Y-96700000D01*
X74410000Y-98070000D02*
X67870000Y-98070000D01*
X67870000Y-95330000D01*
X74410000Y-95330000D01*
X74410000Y-98070000D01*
D13*
%TO.C,LS1*%
X162222999Y-96258124D02*
X162222999Y-102201724D01*
X162222999Y-102201724D02*
X169182599Y-102201724D01*
X169182599Y-96258124D02*
X162222999Y-96258124D01*
X169182599Y-102201724D02*
X169182599Y-96258124D01*
D14*
X166181000Y-103979724D02*
G75*
G02*
X165419000Y-103979724I-381000J0D01*
G01*
X165419000Y-103979724D02*
G75*
G02*
X166181000Y-103979724I381000J0D01*
G01*
D15*
%TO.C,R10*%
X38600000Y-116397143D02*
X39370000Y-116397143D01*
X46680000Y-116397143D02*
X45910000Y-116397143D01*
X45910000Y-117767143D02*
X39370000Y-117767143D01*
X39370000Y-115027143D01*
X45910000Y-115027143D01*
X45910000Y-117767143D01*
%TO.C,R9*%
X38600000Y-113131428D02*
X39370000Y-113131428D01*
X46680000Y-113131428D02*
X45910000Y-113131428D01*
X45910000Y-114501428D02*
X39370000Y-114501428D01*
X39370000Y-111761428D01*
X45910000Y-111761428D01*
X45910000Y-114501428D01*
D13*
%TO.C,J2*%
X57858276Y-157222999D02*
X57858276Y-164182599D01*
X57858276Y-164182599D02*
X63801876Y-164182599D01*
X63801876Y-157222999D02*
X57858276Y-157222999D01*
X63801876Y-164182599D02*
X63801876Y-157222999D01*
D14*
X56461276Y-160800000D02*
G75*
G02*
X55699276Y-160800000I-381000J0D01*
G01*
X55699276Y-160800000D02*
G75*
G02*
X56461276Y-160800000I381000J0D01*
G01*
D15*
%TO.C,R3*%
X143850000Y-86320000D02*
X143850000Y-87090000D01*
X143850000Y-94400000D02*
X143850000Y-93630000D01*
X142480000Y-93630000D02*
X145220000Y-93630000D01*
X145220000Y-87090000D01*
X142480000Y-87090000D01*
X142480000Y-93630000D01*
%TO.C,D3*%
X145395000Y-98870000D02*
X142305000Y-98870000D01*
X143850000Y-104420000D02*
G75*
G02*
X142305170Y-98870000I0J2990000D01*
G01*
X145394830Y-98870000D02*
G75*
G02*
X143850000Y-104420000I-1544830J-2560000D01*
G01*
X146350000Y-101430000D02*
G75*
G02*
X141350000Y-101430000I-2500000J0D01*
G01*
X141350000Y-101430000D02*
G75*
G02*
X146350000Y-101430000I2500000J0D01*
G01*
%TO.C,R13*%
X114560000Y-114200000D02*
X115330000Y-114200000D01*
X122640000Y-114200000D02*
X121870000Y-114200000D01*
X121870000Y-115570000D02*
X115330000Y-115570000D01*
X115330000Y-112830000D01*
X121870000Y-112830000D01*
X121870000Y-115570000D01*
%TO.C,C1*%
X69360000Y-159307621D02*
X67179000Y-159307621D01*
X69360000Y-159347621D02*
X67182000Y-159347621D01*
X69360000Y-159387621D02*
X67186000Y-159387621D01*
X69360000Y-159427621D02*
X67190000Y-159427621D01*
X69360000Y-159467621D02*
X67195000Y-159467621D01*
X69360000Y-159507621D02*
X67200000Y-159507621D01*
X69360000Y-159547621D02*
X67205000Y-159547621D01*
X69360000Y-159587621D02*
X67212000Y-159587621D01*
X69360000Y-159627621D02*
X67218000Y-159627621D01*
X69360000Y-159667621D02*
X67226000Y-159667621D01*
X69360000Y-159707621D02*
X67233000Y-159707621D01*
X69360000Y-159747621D02*
X67241000Y-159747621D01*
X69360000Y-159787621D02*
X67250000Y-159787621D01*
X69360000Y-159827621D02*
X67260000Y-159827621D01*
X69360000Y-159867621D02*
X67269000Y-159867621D01*
X69360000Y-159907621D02*
X67280000Y-159907621D01*
X69360000Y-159947621D02*
X67291000Y-159947621D01*
X69360000Y-159987621D02*
X67302000Y-159987621D01*
X69360000Y-160027621D02*
X67314000Y-160027621D01*
X69360000Y-160067621D02*
X67327000Y-160067621D01*
X69360000Y-160107621D02*
X67340000Y-160107621D01*
X69360000Y-160147621D02*
X67353000Y-160147621D01*
X69360000Y-160187621D02*
X67368000Y-160187621D01*
X69360000Y-160227621D02*
X67383000Y-160227621D01*
X69360000Y-160267621D02*
X67398000Y-160267621D01*
X69360000Y-160307621D02*
X67414000Y-160307621D01*
X69360000Y-160347621D02*
X67431000Y-160347621D01*
X69360000Y-160387621D02*
X67448000Y-160387621D01*
X69360000Y-160427621D02*
X67466000Y-160427621D01*
X69360000Y-160467621D02*
X67485000Y-160467621D01*
X69360000Y-160507621D02*
X67504000Y-160507621D01*
X69360000Y-160547621D02*
X67524000Y-160547621D01*
X69360000Y-160587621D02*
X67545000Y-160587621D01*
X69360000Y-160627621D02*
X67566000Y-160627621D01*
X69360000Y-160667621D02*
X67588000Y-160667621D01*
X69360000Y-160707621D02*
X67611000Y-160707621D01*
X69360000Y-160747621D02*
X67635000Y-160747621D01*
X69360000Y-160787621D02*
X67659000Y-160787621D01*
X69360000Y-160827621D02*
X67684000Y-160827621D01*
X69360000Y-160867621D02*
X67710000Y-160867621D01*
X69360000Y-160907621D02*
X67737000Y-160907621D01*
X69360000Y-160947621D02*
X67764000Y-160947621D01*
X69360000Y-160987621D02*
X67793000Y-160987621D01*
X69360000Y-161027621D02*
X67823000Y-161027621D01*
X69360000Y-161067621D02*
X67853000Y-161067621D01*
X69360000Y-161107621D02*
X67884000Y-161107621D01*
X69360000Y-161147621D02*
X67917000Y-161147621D01*
X69360000Y-161187621D02*
X67950000Y-161187621D01*
X69360000Y-161227621D02*
X67985000Y-161227621D01*
X69360000Y-161267621D02*
X68021000Y-161267621D01*
X69360000Y-161307621D02*
X68058000Y-161307621D01*
X69360000Y-161347621D02*
X68096000Y-161347621D01*
X70802000Y-162307621D02*
X69998000Y-162307621D01*
X71033000Y-162267621D02*
X69767000Y-162267621D01*
X71201000Y-162227621D02*
X69599000Y-162227621D01*
X71339000Y-162187621D02*
X69461000Y-162187621D01*
X71458000Y-162147621D02*
X69342000Y-162147621D01*
X71565000Y-162107621D02*
X69235000Y-162107621D01*
X71661000Y-162067621D02*
X69139000Y-162067621D01*
X71750000Y-162027621D02*
X69050000Y-162027621D01*
X71832000Y-161987621D02*
X68968000Y-161987621D01*
X71909000Y-161947621D02*
X68891000Y-161947621D01*
X71981000Y-161907621D02*
X68819000Y-161907621D01*
X72049000Y-161867621D02*
X68751000Y-161867621D01*
X72114000Y-161827621D02*
X68686000Y-161827621D01*
X72175000Y-161787621D02*
X68625000Y-161787621D01*
X72234000Y-161747621D02*
X68566000Y-161747621D01*
X72239000Y-155567380D02*
X72239000Y-156197380D01*
X72290000Y-161707621D02*
X68510000Y-161707621D01*
X72343000Y-161667621D02*
X68457000Y-161667621D01*
X72395000Y-161627621D02*
X68405000Y-161627621D01*
X72444000Y-161587621D02*
X68356000Y-161587621D01*
X72491000Y-161547621D02*
X68309000Y-161547621D01*
X72537000Y-161507621D02*
X68263000Y-161507621D01*
X72554000Y-155882380D02*
X71924000Y-155882380D01*
X72581000Y-161467621D02*
X68219000Y-161467621D01*
X72623000Y-161427621D02*
X68177000Y-161427621D01*
X72664000Y-161387621D02*
X68136000Y-161387621D01*
X72704000Y-161347621D02*
X71440000Y-161347621D01*
X72742000Y-161307621D02*
X71440000Y-161307621D01*
X72779000Y-161267621D02*
X71440000Y-161267621D01*
X72815000Y-161227621D02*
X71440000Y-161227621D01*
X72850000Y-161187621D02*
X71440000Y-161187621D01*
X72883000Y-161147621D02*
X71440000Y-161147621D01*
X72916000Y-161107621D02*
X71440000Y-161107621D01*
X72947000Y-161067621D02*
X71440000Y-161067621D01*
X72977000Y-161027621D02*
X71440000Y-161027621D01*
X73007000Y-160987621D02*
X71440000Y-160987621D01*
X73036000Y-160947621D02*
X71440000Y-160947621D01*
X73063000Y-160907621D02*
X71440000Y-160907621D01*
X73090000Y-160867621D02*
X71440000Y-160867621D01*
X73116000Y-160827621D02*
X71440000Y-160827621D01*
X73141000Y-160787621D02*
X71440000Y-160787621D01*
X73165000Y-160747621D02*
X71440000Y-160747621D01*
X73189000Y-160707621D02*
X71440000Y-160707621D01*
X73212000Y-160667621D02*
X71440000Y-160667621D01*
X73234000Y-160627621D02*
X71440000Y-160627621D01*
X73255000Y-160587621D02*
X71440000Y-160587621D01*
X73276000Y-160547621D02*
X71440000Y-160547621D01*
X73296000Y-160507621D02*
X71440000Y-160507621D01*
X73315000Y-160467621D02*
X71440000Y-160467621D01*
X73334000Y-160427621D02*
X71440000Y-160427621D01*
X73352000Y-160387621D02*
X71440000Y-160387621D01*
X73369000Y-160347621D02*
X71440000Y-160347621D01*
X73386000Y-160307621D02*
X71440000Y-160307621D01*
X73402000Y-160267621D02*
X71440000Y-160267621D01*
X73417000Y-160227621D02*
X71440000Y-160227621D01*
X73432000Y-160187621D02*
X71440000Y-160187621D01*
X73447000Y-160147621D02*
X71440000Y-160147621D01*
X73460000Y-160107621D02*
X71440000Y-160107621D01*
X73473000Y-160067621D02*
X71440000Y-160067621D01*
X73486000Y-160027621D02*
X71440000Y-160027621D01*
X73498000Y-159987621D02*
X71440000Y-159987621D01*
X73509000Y-159947621D02*
X71440000Y-159947621D01*
X73520000Y-159907621D02*
X71440000Y-159907621D01*
X73531000Y-159867621D02*
X71440000Y-159867621D01*
X73540000Y-159827621D02*
X71440000Y-159827621D01*
X73550000Y-159787621D02*
X71440000Y-159787621D01*
X73559000Y-159747621D02*
X71440000Y-159747621D01*
X73567000Y-159707621D02*
X71440000Y-159707621D01*
X73574000Y-159667621D02*
X71440000Y-159667621D01*
X73582000Y-159627621D02*
X71440000Y-159627621D01*
X73588000Y-159587621D02*
X71440000Y-159587621D01*
X73595000Y-159547621D02*
X71440000Y-159547621D01*
X73600000Y-159507621D02*
X71440000Y-159507621D01*
X73605000Y-159467621D02*
X71440000Y-159467621D01*
X73610000Y-159427621D02*
X71440000Y-159427621D01*
X73614000Y-159387621D02*
X71440000Y-159387621D01*
X73618000Y-159347621D02*
X71440000Y-159347621D01*
X73621000Y-159307621D02*
X71440000Y-159307621D01*
X73624000Y-159267621D02*
X67176000Y-159267621D01*
X73626000Y-159227621D02*
X67174000Y-159227621D01*
X73628000Y-159187621D02*
X67172000Y-159187621D01*
X73629000Y-159147621D02*
X67171000Y-159147621D01*
X73630000Y-159067621D02*
X67170000Y-159067621D01*
X73630000Y-159107621D02*
X67170000Y-159107621D01*
X73670000Y-159067621D02*
G75*
G02*
X67130000Y-159067621I-3270000J0D01*
G01*
X67130000Y-159067621D02*
G75*
G02*
X73670000Y-159067621I3270000J0D01*
G01*
%TO.C,R4*%
X38600000Y-96802857D02*
X39370000Y-96802857D01*
X46680000Y-96802857D02*
X45910000Y-96802857D01*
X45910000Y-98172857D02*
X39370000Y-98172857D01*
X39370000Y-95432857D01*
X45910000Y-95432857D01*
X45910000Y-98172857D01*
%TO.C,R16*%
X126400000Y-125360000D02*
X126400000Y-126130000D01*
X126400000Y-133440000D02*
X126400000Y-132670000D01*
X125030000Y-132670000D02*
X127770000Y-132670000D01*
X127770000Y-126130000D01*
X125030000Y-126130000D01*
X125030000Y-132670000D01*
D17*
%TO.C,U2*%
X145657000Y-120510000D02*
X165977000Y-120510000D01*
X145657000Y-140830000D02*
X145657000Y-120510000D01*
X165977000Y-120510000D02*
X165977000Y-140830000D01*
X165977000Y-140830000D02*
X145657000Y-140830000D01*
D12*
X145117000Y-121780000D02*
G75*
G02*
X144917000Y-121780000I-100000J0D01*
G01*
X144917000Y-121780000D02*
G75*
G02*
X145117000Y-121780000I100000J0D01*
G01*
%TD*%
M02*
