%TF.GenerationSoftware,KiCad,Pcbnew,9.0.7*%
%TF.CreationDate,2026-02-23T19:54:10+01:00*%
%TF.ProjectId,Kaffettino,4b616666-6574-4746-996e-6f2e6b696361,rev?*%
%TF.SameCoordinates,Original*%
%TF.FileFunction,Soldermask,Top*%
%TF.FilePolarity,Negative*%
%FSLAX46Y46*%
G04 Gerber Fmt 4.6, Leading zero omitted, Abs format (unit mm)*
G04 Created by KiCad (PCBNEW 9.0.7) date 2026-02-23 19:54:10*
%MOMM*%
%LPD*%
G01*
G04 APERTURE LIST*
G04 Aperture macros list*
%AMRoundRect*
0 Rectangle with rounded corners*
0 $1 Rounding radius*
0 $2 $3 $4 $5 $6 $7 $8 $9 X,Y pos of 4 corners*
0 Add a 4 corners polygon primitive as box body*
4,1,4,$2,$3,$4,$5,$6,$7,$8,$9,$2,$3,0*
0 Add four circle primitives for the rounded corners*
1,1,$1+$1,$2,$3*
1,1,$1+$1,$4,$5*
1,1,$1+$1,$6,$7*
1,1,$1+$1,$8,$9*
0 Add four rect primitives between the rounded corners*
20,1,$1+$1,$2,$3,$4,$5,0*
20,1,$1+$1,$4,$5,$6,$7,0*
20,1,$1+$1,$6,$7,$8,$9,0*
20,1,$1+$1,$8,$9,$2,$3,0*%
G04 Aperture macros list end*
%ADD10C,1.400000*%
%ADD11O,1.900000X1.524000*%
%ADD12C,1.803400*%
%ADD13C,1.600000*%
%ADD14R,1.800000X1.800000*%
%ADD15C,1.800000*%
%ADD16R,2.000000X2.000000*%
%ADD17C,2.000000*%
%ADD18C,3.200000*%
%ADD19RoundRect,0.250000X-0.550000X0.550000X-0.550000X-0.550000X0.550000X-0.550000X0.550000X0.550000X0*%
%ADD20RoundRect,0.102000X0.754000X0.754000X-0.754000X0.754000X-0.754000X-0.754000X0.754000X-0.754000X0*%
%ADD21C,1.712000*%
%ADD22R,1.295400X1.295400*%
%ADD23C,1.295400*%
%ADD24RoundRect,0.102000X-0.654000X-0.654000X0.654000X-0.654000X0.654000X0.654000X-0.654000X0.654000X0*%
%ADD25C,1.512000*%
G04 APERTURE END LIST*
D10*
%TO.C,U4*%
X82380000Y-24360000D03*
X79840000Y-24360000D03*
X77300000Y-24360000D03*
X74760000Y-24360000D03*
X72220000Y-24360000D03*
X69680000Y-24360000D03*
X67140000Y-24360000D03*
X64600000Y-24360000D03*
X62060000Y-24360000D03*
X59520000Y-24360000D03*
%TD*%
D11*
%TO.C,U3*%
X82421000Y-150240000D03*
X82421000Y-127380000D03*
X82421000Y-147700000D03*
X82421000Y-119760000D03*
X82421000Y-122300000D03*
X82421000Y-124840000D03*
X82421000Y-155320000D03*
X82421000Y-132460000D03*
X82421000Y-142620000D03*
X82421000Y-135000000D03*
X82421000Y-152780000D03*
X82421000Y-145160000D03*
X82421000Y-114680000D03*
X82421000Y-117220000D03*
X82421000Y-137540000D03*
X82421000Y-112140000D03*
X82421000Y-140080000D03*
X82421000Y-157860000D03*
X82421000Y-129920000D03*
X107579000Y-147700000D03*
X107579000Y-150240000D03*
X107579000Y-152780000D03*
X107579000Y-137540000D03*
X107579000Y-140080000D03*
X107579000Y-142620000D03*
X107579000Y-145160000D03*
X107579000Y-155320000D03*
X107579000Y-157860000D03*
X107579000Y-112140000D03*
X107579000Y-114680000D03*
X107579000Y-117220000D03*
X107579000Y-119760000D03*
X107579000Y-122300000D03*
X107579000Y-124840000D03*
X107579000Y-127380000D03*
X107579000Y-129920000D03*
X107579000Y-132460000D03*
X107579000Y-135000000D03*
%TD*%
D12*
%TO.C,J5*%
X42694900Y-160800000D03*
X45234900Y-160800000D03*
X47774900Y-160800000D03*
X50314900Y-160800000D03*
%TD*%
D13*
%TO.C,R8*%
X47720000Y-109865714D03*
X37560000Y-109865714D03*
%TD*%
%TO.C,R12*%
X123680000Y-121780000D03*
X113520000Y-121780000D03*
%TD*%
D14*
%TO.C,D1*%
X123850000Y-100080000D03*
D15*
X123850000Y-102620000D03*
%TD*%
D13*
%TO.C,R2*%
X133850000Y-95180000D03*
X133850000Y-85020000D03*
%TD*%
D14*
%TO.C,D2*%
X133850000Y-100080000D03*
D15*
X133850000Y-102620000D03*
%TD*%
D16*
%TO.C,BZ1*%
X120000000Y-150240000D03*
D17*
X127600000Y-150240000D03*
%TD*%
D18*
%TO.C,H2*%
X160000000Y-25000000D03*
%TD*%
D12*
%TO.C,J3*%
X24000000Y-122400000D03*
X24000000Y-124940000D03*
X24000000Y-127480000D03*
X24000000Y-130020000D03*
%TD*%
D13*
%TO.C,R15*%
X120900000Y-137080000D03*
X120900000Y-126920000D03*
%TD*%
D18*
%TO.C,H1*%
X160000000Y-155000000D03*
%TD*%
D13*
%TO.C,R1*%
X123850000Y-95120000D03*
X123850000Y-84960000D03*
%TD*%
%TO.C,R5*%
X47720000Y-100068571D03*
X37560000Y-100068571D03*
%TD*%
D19*
%TO.C,C2*%
X165800000Y-108200000D03*
D13*
X165800000Y-110700000D03*
%TD*%
D12*
%TO.C,J4*%
X24000000Y-140000000D03*
X24000000Y-142540000D03*
X24000000Y-145080000D03*
X24000000Y-147620000D03*
%TD*%
D13*
%TO.C,R11*%
X47720000Y-119662857D03*
X37560000Y-119662857D03*
%TD*%
D20*
%TO.C,M1*%
X142740000Y-24440000D03*
D21*
X140200000Y-24440000D03*
X137660000Y-24440000D03*
X135120000Y-24440000D03*
X132580000Y-24440000D03*
X130040000Y-24440000D03*
X127500000Y-24440000D03*
X124960000Y-24440000D03*
%TD*%
D13*
%TO.C,R6*%
X47720000Y-103334286D03*
X37560000Y-103334286D03*
%TD*%
%TO.C,R7*%
X47720000Y-106600000D03*
X37560000Y-106600000D03*
%TD*%
D22*
%TO.C,U1*%
X73680000Y-104520000D03*
D23*
X71140000Y-104520000D03*
X68600000Y-104520000D03*
X66060000Y-104520000D03*
X63520000Y-104520000D03*
X60980000Y-104520000D03*
X58440000Y-104520000D03*
X55900000Y-104520000D03*
X55900000Y-112140000D03*
X58440000Y-112140000D03*
X60980000Y-112140000D03*
X63520000Y-112140000D03*
X66060000Y-112140000D03*
X68600000Y-112140000D03*
X71140000Y-112140000D03*
X73680000Y-112140000D03*
%TD*%
D13*
%TO.C,R14*%
X76220000Y-96700000D03*
X66060000Y-96700000D03*
%TD*%
D12*
%TO.C,LS1*%
X165800000Y-100600000D03*
X165800000Y-98060000D03*
%TD*%
D13*
%TO.C,R10*%
X47720000Y-116397143D03*
X37560000Y-116397143D03*
%TD*%
%TO.C,R9*%
X47720000Y-113131428D03*
X37560000Y-113131428D03*
%TD*%
D12*
%TO.C,J2*%
X59460000Y-160800000D03*
X62000000Y-160800000D03*
%TD*%
D18*
%TO.C,H4*%
X30000000Y-155000000D03*
%TD*%
D13*
%TO.C,R3*%
X143850000Y-95440000D03*
X143850000Y-85280000D03*
%TD*%
D18*
%TO.C,H3*%
X30000000Y-25000000D03*
%TD*%
D14*
%TO.C,D3*%
X143850000Y-100160000D03*
D15*
X143850000Y-102700000D03*
%TD*%
D13*
%TO.C,R13*%
X123680000Y-114200000D03*
X113520000Y-114200000D03*
%TD*%
D19*
%TO.C,C1*%
X70400000Y-157817621D03*
D13*
X70400000Y-160317621D03*
%TD*%
%TO.C,R4*%
X47720000Y-96802857D03*
X37560000Y-96802857D03*
%TD*%
%TO.C,R16*%
X126400000Y-134480000D03*
X126400000Y-124320000D03*
%TD*%
D24*
%TO.C,U2*%
X146800000Y-121780000D03*
D25*
X146800000Y-124320000D03*
X146800000Y-126860000D03*
X146800000Y-129400000D03*
X146800000Y-131940000D03*
X146800000Y-134480000D03*
X146800000Y-137020000D03*
X146800000Y-139560000D03*
X164834000Y-139560000D03*
X164834000Y-137020000D03*
X164834000Y-134480000D03*
X164834000Y-131940000D03*
X164834000Y-129400000D03*
X164834000Y-126860000D03*
X164834000Y-124320000D03*
X164834000Y-121780000D03*
%TD*%
M02*
