M48
; DRILL file {KiCad 9.0.7} date 2026-03-15T23:50:42+0100
; FORMAT={-:-/ absolute / metric / decimal}
; #@! TF.CreationDate,2026-03-15T23:50:42+01:00
; #@! TF.GenerationSoftware,Kicad,Pcbnew,9.0.7
; #@! TF.FileFunction,Plated,1,2,PTH
FMAT,2
METRIC
; #@! TA.AperFunction,Plated,PTH,ViaDrill
T1C0.300
; #@! TA.AperFunction,Plated,PTH,ComponentDrill
T2C0.750
; #@! TA.AperFunction,Plated,PTH,ComponentDrill
T3C0.787
; #@! TA.AperFunction,Plated,PTH,ComponentDrill
T4C0.800
; #@! TA.AperFunction,Plated,PTH,ComponentDrill
T5C0.900
; #@! TA.AperFunction,Plated,PTH,ComponentDrill
T6C1.000
; #@! TA.AperFunction,Plated,PTH,ComponentDrill
T7C1.100
; #@! TA.AperFunction,Plated,PTH,ComponentDrill
T8C1.295
%
G90
G05
T1
X30.058Y-55.628
X42.8Y-141.3
X63.485Y-137.263
X63.9Y-121.3
X86.802Y-59.793
X92.7Y-156.1
X93.1Y-124.2
X97.601Y-156.2
X106.0Y-84.3
X107.8Y-31.2
X112.913Y-147.2
X121.4Y-27.6
X137.1Y-136.5
X138.313Y-48.566
X158.3Y-90.7
X161.986Y-39.88
T2
X72.07Y-147.423
X73.34Y-147.423
X74.61Y-147.423
T3
X55.9Y-104.52
X55.9Y-112.14
X58.44Y-104.52
X58.44Y-112.14
X60.98Y-104.52
X60.98Y-112.14
X63.52Y-104.52
X63.52Y-112.14
X66.06Y-104.52
X66.06Y-112.14
X68.6Y-104.52
X68.6Y-112.14
X71.14Y-104.52
X71.14Y-112.14
X73.68Y-104.52
X73.68Y-112.14
T4
X37.56Y-96.803
X37.56Y-100.069
X37.56Y-103.334
X37.56Y-106.6
X37.56Y-109.866
X37.56Y-113.131
X37.56Y-116.397
X37.56Y-119.663
X47.72Y-96.803
X47.72Y-100.069
X47.72Y-103.334
X47.72Y-106.6
X47.72Y-109.866
X47.72Y-113.131
X47.72Y-116.397
X47.72Y-119.663
X66.06Y-96.7
X70.4Y-157.818
X70.4Y-160.318
X73.34Y-129.92
X73.34Y-140.08
X76.22Y-96.7
X82.421Y-112.14
X82.421Y-114.68
X82.421Y-117.22
X82.421Y-119.76
X82.421Y-122.3
X82.421Y-124.84
X82.421Y-127.38
X82.421Y-129.92
X82.421Y-132.46
X82.421Y-135.0
X82.421Y-137.54
X82.421Y-140.08
X82.421Y-142.62
X82.421Y-145.16
X82.421Y-147.7
X82.421Y-150.24
X82.421Y-152.78
X82.421Y-155.32
X82.421Y-157.86
X107.579Y-112.14
X107.579Y-114.68
X107.579Y-117.22
X107.579Y-119.76
X107.579Y-122.3
X107.579Y-124.84
X107.579Y-127.38
X107.579Y-129.92
X107.579Y-132.46
X107.579Y-135.0
X107.579Y-137.54
X107.579Y-140.08
X107.579Y-142.62
X107.579Y-145.16
X107.579Y-147.7
X107.579Y-150.24
X107.579Y-152.78
X107.579Y-155.32
X107.579Y-157.86
X113.52Y-114.2
X113.52Y-121.78
X120.9Y-126.92
X120.9Y-137.08
X123.68Y-114.2
X123.68Y-121.78
X123.85Y-84.96
X123.85Y-95.12
X126.4Y-124.32
X126.4Y-134.48
X133.85Y-85.02
X133.85Y-95.18
X143.85Y-85.28
X143.85Y-95.44
X146.8Y-121.78
X146.8Y-124.32
X146.8Y-126.86
X146.8Y-129.4
X146.8Y-131.94
X146.8Y-134.48
X146.8Y-137.02
X146.8Y-139.56
X164.834Y-121.78
X164.834Y-124.32
X164.834Y-126.86
X164.834Y-129.4
X164.834Y-131.94
X164.834Y-134.48
X164.834Y-137.02
X164.834Y-139.56
X165.8Y-108.2
X165.8Y-110.7
T5
X123.85Y-100.08
X123.85Y-102.62
X133.85Y-100.08
X133.85Y-102.62
X143.85Y-100.16
X143.85Y-102.7
T6
X59.52Y-24.36
X59.692Y-137.263
X62.06Y-24.36
X64.6Y-24.36
X67.14Y-24.36
X67.292Y-137.263
X69.68Y-24.36
X72.22Y-24.36
X74.76Y-24.36
X77.3Y-24.36
X79.84Y-24.36
X82.38Y-24.36
X124.96Y-24.44
X127.5Y-24.44
X130.04Y-24.44
X132.58Y-24.44
X135.12Y-24.44
X137.66Y-24.44
X140.2Y-24.44
X142.74Y-24.44
T7
X52.868Y-137.263
X52.868Y-147.423
T8
X24.013Y-119.839
X24.013Y-122.379
X24.013Y-124.919
X24.013Y-127.459
X24.013Y-129.999
X24.013Y-137.466
X24.013Y-140.006
X24.013Y-142.546
X24.013Y-145.086
X24.013Y-147.626
X42.695Y-160.8
X45.235Y-160.8
X47.775Y-160.8
X50.315Y-160.8
X60.724Y-160.8
X63.264Y-160.8
X165.8Y-98.06
X165.8Y-100.6
M30
